  0
SECTION
  2
HEADER
  9
$ANGBASE
  50
0.0
  9
$ANGDIR
  70
1
  9
$MEASUREMENT
  70
1
  0
ENDSEC
  0
SECTION
  2
TABLES
  0
TABLE
  2
LTYPE
  70
4
  0
LTYPE
  5
40F
  2
CONTINUOUS
  70
0
  3
Solid line
  72
65
  73
0
  40
0.0
  0
LTYPE
  5
410
  2
DASHDOT
 70
0
  3
Dash Dot ____ _ ____ _
 72
65
 73
4
 40
2.0
 49
1.25
 49
-0.25
 49
0.25
 49
-0.25
  0
LTYPE
  5
411
  2
DASHED
 70
0
  3
Dashed __ __ __ __ __
 72
65
 73
2
 40
0.75
 49
0.5
 49
-0.25
  0
LTYPE
  5
43B
  2
DOTTED
 70
0
  3
Dotted .  .  .  .
 72
65
 73
2
 40
0.2
 49
0.0
 49
-0.2
  0
ENDTAB
  0
TABLE
  2
STYLE
  70
4
  0
STYLE
  2
KICAD
  70
0
  40
0
  41
1
  42
1
  50
0
  71
0
  3
isocp.shx
  0
STYLE
  2
KICADB
  70
0
  40
0
  41
1
  42
1
  50
0
  71
0
  3
isocp.shx
  0
STYLE
  2
KICADI
  70
0
  40
0
  41
1
  42
1
  50
15
  71
0
  3
isocp.shx
  0
STYLE
  2
KICADBI
  70
0
  40
0
  41
1
  42
1
  50
15
  71
0
  3
isocp.shx
  0
ENDTAB
  0
TABLE
  2
LAYER
  70
1
  0
LAYER
  2
BLACK
  70
0
  62
7
  6
CONTINUOUS
  0
ENDTAB
  0
ENDSEC
  0
SECTION
  2
ENTITIES
0
LINE
8
BLACK
6
CONTINUOUS
10
204.
20
-52.0249999999999986
11
204.
21
-128.0250000000000057
0
ARC
8
BLACK
10
203.
20
-52.0249999999999986
40
1.
50
0.00000000
51
90.00000000
0
LINE
8
BLACK
6
CONTINUOUS
10
96.
20
-51.0249999999999986
11
203.
21
-51.0249999999999986
0
LINE
8
BLACK
6
CONTINUOUS
10
96.
20
-129.0250000000000057
11
134.
21
-129.0250000000000057
0
LINE
8
BLACK
6
CONTINUOUS
10
158.
20
-129.0250000000000057
11
203.
21
-129.0250000000000057
0
LINE
8
BLACK
6
CONTINUOUS
10
134.
20
-109.0249999999999915
11
158.
21
-109.0249999999999915
0
ARC
8
BLACK
10
96.
20
-128.0250000000000057
40
1.
50
-180.00000000
51
-90.00000000
0
LINE
8
BLACK
6
CONTINUOUS
10
134.
20
-129.0250000000000057
11
134.
21
-109.0249999999999915
0
ARC
8
BLACK
10
203.
20
-128.0250000000000057
40
1.
50
-90.00000000
51
-0.00000000
0
ARC
8
BLACK
10
96.
20
-52.0249999999999986
40
1.
50
90.00000000
51
180.00000000
0
LINE
8
BLACK
6
CONTINUOUS
10
158.
20
-109.0249999999999915
11
158.
21
-129.0250000000000057
0
LINE
8
BLACK
6
CONTINUOUS
10
95.
20
-52.0249999999999986
11
95.
21
-128.0250000000000057
0
LINE
8
BLACK
6
CONTINUOUS
10
100.292246999999989
20
-62.6184469999999962
11
100.292246999999989
21
-61.5770470000000003
0
LINE
8
BLACK
6
CONTINUOUS
10
100.9780469999999895
20
-60.8912469999999999
11
102.5782469999999904
21
-60.8912469999999999
0
LINE
8
BLACK
6
CONTINUOUS
10
102.5782469999999904
20
-63.3042469999999966
11
100.9780469999999895
21
-63.3042469999999966
0
LINE
8
BLACK
6
CONTINUOUS
10
102.9592469999999906
20
-61.2722470000000001
11
102.9592469999999906
21
-62.9232469999999964
0
LINE
8
BLACK
6
CONTINUOUS
10
108.5722469999999902
20
-72.2609530000000007
11
108.5722469999999902
21
-70.6607529999999997
0
LINE
8
BLACK
6
CONTINUOUS
10
108.9532469999999904
20
-70.2797529999999995
11
110.6042470000000009
21
-70.2797529999999995
0
LINE
8
BLACK
6
CONTINUOUS
10
110.2994470000000007
20
-72.9467530000000011
11
109.2580469999999906
21
-72.9467530000000011
0
LINE
8
BLACK
6
CONTINUOUS
10
110.9852470000000011
20
-70.6607529999999997
11
110.9852470000000011
21
-72.2609530000000007
0
ARC
8
BLACK
10
100.539999999999992
20
-63.0564939999999936
40
0.5032561208947189
50
-29.49186786
51
119.49186786
0
ARC
8
BLACK
10
100.539999999999992
20
-61.1389999999999958
40
0.5032561208947189
50
-119.49186786
51
29.49186786
0
ARC
8
BLACK
10
102.5782549999999986
20
-61.272238999999999
40
0.3809920000839913
50
-0.00120309
51
90.00120309
0
ARC
8
BLACK
10
102.5782509999999945
20
-62.9232510000000005
40
0.3809960000209976
50
-90.00060154
51
0.00060154
0
ARC
8
BLACK
10
108.953249999999997
20
-70.6607499999999931
40
0.3810030000118109
50
-269.99954885
51
-179.99954886
0
ARC
8
BLACK
10
108.8199999999999932
20
-72.6989999999999981
40
0.5032561208947189
50
-29.49186786
51
119.49186786
0
ARC
8
BLACK
10
110.7374999999999972
20
-72.6989999999999981
40
0.5032613434568565
50
-299.49127326
51
-150.50846843
0
ARC
8
BLACK
10
110.6042499999999933
20
-70.6607499999999931
40
0.3809970000118111
50
-0.00045115
51
90.00045115
0
LINE
8
BLACK
6
CONTINUOUS
10
158.9377999999999815
20
-108.5604999999999905
11
162.4877999999999929
21
-108.5604999999999905
0
LINE
8
BLACK
6
CONTINUOUS
10
158.9377999999999815
20
-127.3604999999999876
11
158.9377999999999815
21
-108.5604999999999905
0
LINE
8
BLACK
6
CONTINUOUS
10
162.4877999999999929
20
-108.5604999999999905
11
162.4877999999999929
21
-127.3604999999999876
0
LINE
8
BLACK
6
CONTINUOUS
10
162.4877999999999929
20
-127.3604999999999876
11
158.9377999999999815
21
-127.3604999999999876
0
LINE
8
BLACK
6
CONTINUOUS
10
117.
20
-58.0249999999999986
11
117.
21
-72.0249999999999915
0
LINE
8
BLACK
6
CONTINUOUS
10
117.
20
-72.0249999999999915
11
131.
21
-72.0249999999999915
0
LINE
8
BLACK
6
CONTINUOUS
10
131.
20
-58.0249999999999986
11
117.
21
-58.0249999999999986
0
LINE
8
BLACK
6
CONTINUOUS
10
131.
20
-72.0249999999999915
11
131.
21
-58.0249999999999986
0
LINE
8
BLACK
6
CONTINUOUS
10
100.
20
-92.0249999999999915
11
100.
21
-106.0249999999999915
0
LINE
8
BLACK
6
CONTINUOUS
10
100.
20
-106.0249999999999915
11
114.
21
-106.0249999999999915
0
LINE
8
BLACK
6
CONTINUOUS
10
114.
20
-92.0249999999999915
11
100.
21
-92.0249999999999915
0
LINE
8
BLACK
6
CONTINUOUS
10
114.
20
-106.0249999999999915
11
114.
21
-92.0249999999999915
0
LINE
8
BLACK
6
CONTINUOUS
10
168.
20
-92.0249999999999915
11
168.
21
-106.0249999999999915
0
LINE
8
BLACK
6
CONTINUOUS
10
168.
20
-106.0249999999999915
11
182.
21
-106.0249999999999915
0
LINE
8
BLACK
6
CONTINUOUS
10
182.
20
-92.0249999999999915
11
168.
21
-92.0249999999999915
0
LINE
8
BLACK
6
CONTINUOUS
10
182.
20
-106.0249999999999915
11
182.
21
-92.0249999999999915
0
LINE
8
BLACK
6
CONTINUOUS
10
117.
20
-109.0249999999999915
11
117.
21
-123.0249999999999915
0
LINE
8
BLACK
6
CONTINUOUS
10
117.
20
-123.0249999999999915
11
131.
21
-123.0249999999999915
0
LINE
8
BLACK
6
CONTINUOUS
10
131.
20
-109.0249999999999915
11
117.
21
-109.0249999999999915
0
LINE
8
BLACK
6
CONTINUOUS
10
131.
20
-123.0249999999999915
11
131.
21
-109.0249999999999915
0
LINE
8
BLACK
6
CONTINUOUS
10
168.
20
-58.0249999999999986
11
168.
21
-72.0249999999999915
0
LINE
8
BLACK
6
CONTINUOUS
10
168.
20
-72.0249999999999915
11
182.
21
-72.0249999999999915
0
LINE
8
BLACK
6
CONTINUOUS
10
182.
20
-58.0249999999999986
11
168.
21
-58.0249999999999986
0
LINE
8
BLACK
6
CONTINUOUS
10
182.
20
-72.0249999999999915
11
182.
21
-58.0249999999999986
0
LINE
8
BLACK
6
CONTINUOUS
10
185.
20
-58.0249999999999986
11
185.
21
-72.0249999999999915
0
LINE
8
BLACK
6
CONTINUOUS
10
185.
20
-72.0249999999999915
11
199.
21
-72.0249999999999915
0
LINE
8
BLACK
6
CONTINUOUS
10
199.
20
-58.0249999999999986
11
185.
21
-58.0249999999999986
0
LINE
8
BLACK
6
CONTINUOUS
10
199.
20
-72.0249999999999915
11
199.
21
-58.0249999999999986
0
LINE
8
BLACK
6
CONTINUOUS
10
151.
20
-92.0249999999999915
11
151.
21
-106.0249999999999915
0
LINE
8
BLACK
6
CONTINUOUS
10
151.
20
-106.0249999999999915
11
165.
21
-106.0249999999999915
0
LINE
8
BLACK
6
CONTINUOUS
10
165.
20
-92.0249999999999915
11
151.
21
-92.0249999999999915
0
LINE
8
BLACK
6
CONTINUOUS
10
165.
20
-106.0249999999999915
11
165.
21
-92.0249999999999915
0
LINE
8
BLACK
6
CONTINUOUS
10
100.
20
-109.0249999999999915
11
100.
21
-123.0249999999999915
0
LINE
8
BLACK
6
CONTINUOUS
10
100.
20
-123.0249999999999915
11
114.
21
-123.0249999999999915
0
LINE
8
BLACK
6
CONTINUOUS
10
114.
20
-109.0249999999999915
11
100.
21
-109.0249999999999915
0
LINE
8
BLACK
6
CONTINUOUS
10
114.
20
-123.0249999999999915
11
114.
21
-109.0249999999999915
0
LINE
8
BLACK
6
CONTINUOUS
10
185.
20
-92.0249999999999915
11
185.
21
-106.0249999999999915
0
LINE
8
BLACK
6
CONTINUOUS
10
185.
20
-106.0249999999999915
11
199.
21
-106.0249999999999915
0
LINE
8
BLACK
6
CONTINUOUS
10
199.
20
-92.0249999999999915
11
185.
21
-92.0249999999999915
0
LINE
8
BLACK
6
CONTINUOUS
10
199.
20
-106.0249999999999915
11
199.
21
-92.0249999999999915
0
LINE
8
BLACK
6
CONTINUOUS
10
185.
20
-109.0249999999999915
11
185.
21
-123.0249999999999915
0
LINE
8
BLACK
6
CONTINUOUS
10
185.
20
-123.0249999999999915
11
199.
21
-123.0249999999999915
0
LINE
8
BLACK
6
CONTINUOUS
10
199.
20
-109.0249999999999915
11
185.
21
-109.0249999999999915
0
LINE
8
BLACK
6
CONTINUOUS
10
199.
20
-123.0249999999999915
11
199.
21
-109.0249999999999915
0
LINE
8
BLACK
6
CONTINUOUS
10
117.
20
-92.0249999999999915
11
117.
21
-106.0249999999999915
0
LINE
8
BLACK
6
CONTINUOUS
10
117.
20
-106.0249999999999915
11
131.
21
-106.0249999999999915
0
LINE
8
BLACK
6
CONTINUOUS
10
131.
20
-92.0249999999999915
11
117.
21
-92.0249999999999915
0
LINE
8
BLACK
6
CONTINUOUS
10
131.
20
-106.0249999999999915
11
131.
21
-92.0249999999999915
0
LINE
8
BLACK
6
CONTINUOUS
10
134.
20
-92.0249999999999915
11
134.
21
-106.0249999999999915
0
LINE
8
BLACK
6
CONTINUOUS
10
134.
20
-106.0249999999999915
11
148.
21
-106.0249999999999915
0
LINE
8
BLACK
6
CONTINUOUS
10
148.
20
-92.0249999999999915
11
134.
21
-92.0249999999999915
0
LINE
8
BLACK
6
CONTINUOUS
10
148.
20
-106.0249999999999915
11
148.
21
-92.0249999999999915
0
LINE
8
BLACK
6
CONTINUOUS
10
151.
20
-75.0249999999999915
11
151.
21
-89.0249999999999915
0
LINE
8
BLACK
6
CONTINUOUS
10
151.
20
-89.0249999999999915
11
165.
21
-89.0249999999999915
0
LINE
8
BLACK
6
CONTINUOUS
10
165.
20
-75.0249999999999915
11
151.
21
-75.0249999999999915
0
LINE
8
BLACK
6
CONTINUOUS
10
165.
20
-89.0249999999999915
11
165.
21
-75.0249999999999915
0
LINE
8
BLACK
6
CONTINUOUS
10
134.
20
-58.0249999999999986
11
134.
21
-72.0249999999999915
0
LINE
8
BLACK
6
CONTINUOUS
10
134.
20
-72.0249999999999915
11
148.
21
-72.0249999999999915
0
LINE
8
BLACK
6
CONTINUOUS
10
148.
20
-58.0249999999999986
11
134.
21
-58.0249999999999986
0
LINE
8
BLACK
6
CONTINUOUS
10
148.
20
-72.0249999999999915
11
148.
21
-58.0249999999999986
0
LINE
8
BLACK
6
CONTINUOUS
10
134.
20
-75.0249999999999915
11
134.
21
-89.0249999999999915
0
LINE
8
BLACK
6
CONTINUOUS
10
134.
20
-89.0249999999999915
11
148.
21
-89.0249999999999915
0
LINE
8
BLACK
6
CONTINUOUS
10
148.
20
-75.0249999999999915
11
134.
21
-75.0249999999999915
0
LINE
8
BLACK
6
CONTINUOUS
10
148.
20
-89.0249999999999915
11
148.
21
-75.0249999999999915
0
LINE
8
BLACK
6
CONTINUOUS
10
151.
20
-58.0249999999999986
11
151.
21
-72.0249999999999915
0
LINE
8
BLACK
6
CONTINUOUS
10
151.
20
-72.0249999999999915
11
165.
21
-72.0249999999999915
0
LINE
8
BLACK
6
CONTINUOUS
10
165.
20
-58.0249999999999986
11
151.
21
-58.0249999999999986
0
LINE
8
BLACK
6
CONTINUOUS
10
165.
20
-72.0249999999999915
11
165.
21
-58.0249999999999986
0
LINE
8
BLACK
6
CONTINUOUS
10
168.
20
-109.0249999999999915
11
168.
21
-123.0249999999999915
0
LINE
8
BLACK
6
CONTINUOUS
10
168.
20
-123.0249999999999915
11
182.
21
-123.0249999999999915
0
LINE
8
BLACK
6
CONTINUOUS
10
182.
20
-109.0249999999999915
11
168.
21
-109.0249999999999915
0
LINE
8
BLACK
6
CONTINUOUS
10
182.
20
-123.0249999999999915
11
182.
21
-109.0249999999999915
0
LINE
8
BLACK
6
CONTINUOUS
10
117.
20
-75.0249999999999915
11
117.
21
-89.0249999999999915
0
LINE
8
BLACK
6
CONTINUOUS
10
117.
20
-89.0249999999999915
11
131.
21
-89.0249999999999915
0
LINE
8
BLACK
6
CONTINUOUS
10
131.
20
-75.0249999999999915
11
117.
21
-75.0249999999999915
0
LINE
8
BLACK
6
CONTINUOUS
10
131.
20
-89.0249999999999915
11
131.
21
-75.0249999999999915
0
LINE
8
BLACK
6
CONTINUOUS
10
185.
20
-75.0249999999999915
11
185.
21
-89.0249999999999915
0
LINE
8
BLACK
6
CONTINUOUS
10
185.
20
-89.0249999999999915
11
199.
21
-89.0249999999999915
0
LINE
8
BLACK
6
CONTINUOUS
10
199.
20
-75.0249999999999915
11
185.
21
-75.0249999999999915
0
LINE
8
BLACK
6
CONTINUOUS
10
199.
20
-89.0249999999999915
11
199.
21
-75.0249999999999915
0
LINE
8
BLACK
6
CONTINUOUS
10
168.
20
-75.0249999999999915
11
168.
21
-89.0249999999999915
0
LINE
8
BLACK
6
CONTINUOUS
10
168.
20
-89.0249999999999915
11
182.
21
-89.0249999999999915
0
LINE
8
BLACK
6
CONTINUOUS
10
182.
20
-75.0249999999999915
11
168.
21
-75.0249999999999915
0
LINE
8
BLACK
6
CONTINUOUS
10
182.
20
-89.0249999999999915
11
182.
21
-75.0249999999999915
  0
TEXT
  7
KICAD
  8
BLACK
  10
96.0364000000000004
  11
96.0364000000000004
  20
-85.
  21
-85.
  40
1.
  41
0.8999999999999999
  50
90.00000000
  51
0.00000000
  71
2
  72
1
  73
2
  1
MSK-12D19
0
LINE
8
BLACK
6
CONTINUOUS
10
95.0364000000000004
20
-80.5
11
98.5364000000000004
21
-80.5
0
LINE
8
BLACK
6
CONTINUOUS
10
95.0364000000000004
20
-89.5
11
95.0364000000000004
21
-80.5
0
LINE
8
BLACK
6
CONTINUOUS
10
98.5364000000000004
20
-80.5
11
98.5364000000000004
21
-89.5
0
LINE
8
BLACK
6
CONTINUOUS
10
98.5364000000000004
20
-89.5
11
95.0364000000000004
21
-89.5
0
LINE
8
BLACK
6
CONTINUOUS
10
96.1099999999999994
20
-73.8689999999999998
11
113.8900000000000006
21
-73.8689999999999998
0
LINE
8
BLACK
6
CONTINUOUS
10
113.8900000000000006
20
-73.8689999999999998
11
113.8900000000000006
21
-52.8689999999999998
0
LINE
8
BLACK
6
CONTINUOUS
10
113.8900000000000006
20
-52.8689999999999998
11
96.1099999999999994
21
-52.8689999999999998
0
LINE
8
BLACK
6
CONTINUOUS
10
96.1099999999999994
20
-52.8689999999999998
11
96.1099999999999994
21
-73.8689999999999998
0
LINE
8
BLACK
6
CONTINUOUS
10
100.5
20
-51.3689999999999998
11
109.5
21
-51.3689999999999998
0
LINE
8
BLACK
6
CONTINUOUS
10
109.5
20
-51.3689999999999998
11
109.5
21
-52.8689999999999998
0
LINE
8
BLACK
6
CONTINUOUS
10
109.5
20
-52.8689999999999998
11
100.5
21
-52.8689999999999998
0
LINE
8
BLACK
6
CONTINUOUS
10
100.5
20
-52.8689999999999998
11
100.5
21
-51.3689999999999998
0
POLYLINE
8
BLACK
66
1
70
1
40
0.5765
41
0.5765
0
VERTEX
8
BLACK
10
103.4417499999999848
 20
-54.796999999999997
42
1.0
0
VERTEX
8
BLACK
10
104.0182499999999948
 20
-54.796999999999997
42
1.0
0
SEQEND
0
POLYLINE
8
BLACK
66
1
70
1
40
0.5765
41
0.5765
0
VERTEX
8
BLACK
10
103.4417499999999848
 20
-57.3369999999999962
42
1.0
0
VERTEX
8
BLACK
10
104.0182499999999948
 20
-57.3369999999999962
42
1.0
0
SEQEND
0
POLYLINE
8
BLACK
66
1
70
1
40
0.5765
41
0.5765
0
VERTEX
8
BLACK
10
105.981749999999991
 20
-54.796999999999997
42
1.0
0
VERTEX
8
BLACK
10
106.558250000000001
 20
-54.796999999999997
42
1.0
0
SEQEND
0
POLYLINE
8
BLACK
66
1
70
1
40
0.5765
41
0.5765
0
VERTEX
8
BLACK
10
105.981749999999991
 20
-57.3369999999999962
42
1.0
0
VERTEX
8
BLACK
10
106.558250000000001
 20
-57.3369999999999962
42
1.0
0
SEQEND
0
LINE
8
BLACK
6
CONTINUOUS
10
114.4749999999999943
20
-55.5
11
114.4749999999999943
21
-74.5499999999999972
0
LINE
8
BLACK
6
CONTINUOUS
10
114.4749999999999943
20
-74.5499999999999972
11
133.5250000000000057
21
-74.5499999999999972
0
LINE
8
BLACK
6
CONTINUOUS
10
133.5250000000000057
20
-55.5
11
114.4749999999999943
21
-55.5
0
LINE
8
BLACK
6
CONTINUOUS
10
133.5250000000000057
20
-74.5499999999999972
11
133.5250000000000057
21
-55.5
0
LINE
8
BLACK
6
CONTINUOUS
10
97.4749999999999943
20
-89.5
11
97.4749999999999943
21
-108.5499999999999972
0
LINE
8
BLACK
6
CONTINUOUS
10
97.4749999999999943
20
-108.5499999999999972
11
116.5249999999999915
21
-108.5499999999999972
0
LINE
8
BLACK
6
CONTINUOUS
10
116.5249999999999915
20
-89.5
11
97.4749999999999943
21
-89.5
0
LINE
8
BLACK
6
CONTINUOUS
10
116.5249999999999915
20
-108.5499999999999972
11
116.5249999999999915
21
-89.5
0
LINE
8
BLACK
6
CONTINUOUS
10
165.4749999999999943
20
-89.5
11
165.4749999999999943
21
-108.5499999999999972
0
LINE
8
BLACK
6
CONTINUOUS
10
165.4749999999999943
20
-108.5499999999999972
11
184.5250000000000057
21
-108.5499999999999972
0
LINE
8
BLACK
6
CONTINUOUS
10
184.5250000000000057
20
-89.5
11
165.4749999999999943
21
-89.5
0
LINE
8
BLACK
6
CONTINUOUS
10
184.5250000000000057
20
-108.5499999999999972
11
184.5250000000000057
21
-89.5
0
LINE
8
BLACK
6
CONTINUOUS
10
114.4749999999999943
20
-106.5
11
114.4749999999999943
21
-125.5499999999999972
0
LINE
8
BLACK
6
CONTINUOUS
10
114.4749999999999943
20
-125.5499999999999972
11
133.5250000000000057
21
-125.5499999999999972
0
LINE
8
BLACK
6
CONTINUOUS
10
133.5250000000000057
20
-106.5
11
114.4749999999999943
21
-106.5
0
LINE
8
BLACK
6
CONTINUOUS
10
133.5250000000000057
20
-125.5499999999999972
11
133.5250000000000057
21
-106.5
0
LINE
8
BLACK
6
CONTINUOUS
10
165.4749999999999943
20
-55.5
11
165.4749999999999943
21
-74.5499999999999972
0
LINE
8
BLACK
6
CONTINUOUS
10
165.4749999999999943
20
-74.5499999999999972
11
184.5250000000000057
21
-74.5499999999999972
0
LINE
8
BLACK
6
CONTINUOUS
10
184.5250000000000057
20
-55.5
11
165.4749999999999943
21
-55.5
0
LINE
8
BLACK
6
CONTINUOUS
10
184.5250000000000057
20
-74.5499999999999972
11
184.5250000000000057
21
-55.5
0
LINE
8
BLACK
6
CONTINUOUS
10
182.4749999999999943
20
-55.5
11
182.4749999999999943
21
-74.5499999999999972
0
LINE
8
BLACK
6
CONTINUOUS
10
182.4749999999999943
20
-74.5499999999999972
11
201.5249999999999773
21
-74.5499999999999972
0
LINE
8
BLACK
6
CONTINUOUS
10
201.5249999999999773
20
-55.5
11
182.4749999999999943
21
-55.5
0
LINE
8
BLACK
6
CONTINUOUS
10
201.5249999999999773
20
-74.5499999999999972
11
201.5249999999999773
21
-55.5
0
LINE
8
BLACK
6
CONTINUOUS
10
148.4749999999999943
20
-89.5
11
148.4749999999999943
21
-108.5499999999999972
0
LINE
8
BLACK
6
CONTINUOUS
10
148.4749999999999943
20
-108.5499999999999972
11
167.5250000000000057
21
-108.5499999999999972
0
LINE
8
BLACK
6
CONTINUOUS
10
167.5250000000000057
20
-89.5
11
148.4749999999999943
21
-89.5
0
LINE
8
BLACK
6
CONTINUOUS
10
167.5250000000000057
20
-108.5499999999999972
11
167.5250000000000057
21
-89.5
0
LINE
8
BLACK
6
CONTINUOUS
10
97.4749999999999943
20
-106.5
11
97.4749999999999943
21
-125.5499999999999972
0
LINE
8
BLACK
6
CONTINUOUS
10
97.4749999999999943
20
-125.5499999999999972
11
116.5249999999999915
21
-125.5499999999999972
0
LINE
8
BLACK
6
CONTINUOUS
10
116.5249999999999915
20
-106.5
11
97.4749999999999943
21
-106.5
0
LINE
8
BLACK
6
CONTINUOUS
10
116.5249999999999915
20
-125.5499999999999972
11
116.5249999999999915
21
-106.5
0
LINE
8
BLACK
6
CONTINUOUS
10
182.4749999999999943
20
-89.5
11
182.4749999999999943
21
-108.5499999999999972
0
LINE
8
BLACK
6
CONTINUOUS
10
182.4749999999999943
20
-108.5499999999999972
11
201.5249999999999773
21
-108.5499999999999972
0
LINE
8
BLACK
6
CONTINUOUS
10
201.5249999999999773
20
-89.5
11
182.4749999999999943
21
-89.5
0
LINE
8
BLACK
6
CONTINUOUS
10
201.5249999999999773
20
-108.5499999999999972
11
201.5249999999999773
21
-89.5
0
LINE
8
BLACK
6
CONTINUOUS
10
182.4749999999999943
20
-106.5
11
182.4749999999999943
21
-125.5499999999999972
0
LINE
8
BLACK
6
CONTINUOUS
10
182.4749999999999943
20
-125.5499999999999972
11
201.5249999999999773
21
-125.5499999999999972
0
LINE
8
BLACK
6
CONTINUOUS
10
201.5249999999999773
20
-106.5
11
182.4749999999999943
21
-106.5
0
LINE
8
BLACK
6
CONTINUOUS
10
201.5249999999999773
20
-125.5499999999999972
11
201.5249999999999773
21
-106.5
0
LINE
8
BLACK
6
CONTINUOUS
10
114.4749999999999943
20
-89.5
11
114.4749999999999943
21
-108.5499999999999972
0
LINE
8
BLACK
6
CONTINUOUS
10
114.4749999999999943
20
-108.5499999999999972
11
133.5250000000000057
21
-108.5499999999999972
0
LINE
8
BLACK
6
CONTINUOUS
10
133.5250000000000057
20
-89.5
11
114.4749999999999943
21
-89.5
0
LINE
8
BLACK
6
CONTINUOUS
10
133.5250000000000057
20
-108.5499999999999972
11
133.5250000000000057
21
-89.5
0
LINE
8
BLACK
6
CONTINUOUS
10
131.4749999999999943
20
-89.5
11
131.4749999999999943
21
-108.5499999999999972
0
LINE
8
BLACK
6
CONTINUOUS
10
131.4749999999999943
20
-108.5499999999999972
11
150.5250000000000057
21
-108.5499999999999972
0
LINE
8
BLACK
6
CONTINUOUS
10
150.5250000000000057
20
-89.5
11
131.4749999999999943
21
-89.5
0
LINE
8
BLACK
6
CONTINUOUS
10
150.5250000000000057
20
-108.5499999999999972
11
150.5250000000000057
21
-89.5
0
LINE
8
BLACK
6
CONTINUOUS
10
148.4749999999999943
20
-72.5
11
148.4749999999999943
21
-91.5499999999999972
0
LINE
8
BLACK
6
CONTINUOUS
10
148.4749999999999943
20
-91.5499999999999972
11
167.5250000000000057
21
-91.5499999999999972
0
LINE
8
BLACK
6
CONTINUOUS
10
167.5250000000000057
20
-72.5
11
148.4749999999999943
21
-72.5
0
LINE
8
BLACK
6
CONTINUOUS
10
167.5250000000000057
20
-91.5499999999999972
11
167.5250000000000057
21
-72.5
0
LINE
8
BLACK
6
CONTINUOUS
10
131.4749999999999943
20
-55.5
11
131.4749999999999943
21
-74.5499999999999972
0
LINE
8
BLACK
6
CONTINUOUS
10
131.4749999999999943
20
-74.5499999999999972
11
150.5250000000000057
21
-74.5499999999999972
0
LINE
8
BLACK
6
CONTINUOUS
10
150.5250000000000057
20
-55.5
11
131.4749999999999943
21
-55.5
0
LINE
8
BLACK
6
CONTINUOUS
10
150.5250000000000057
20
-74.5499999999999972
11
150.5250000000000057
21
-55.5
0
LINE
8
BLACK
6
CONTINUOUS
10
131.4749999999999943
20
-72.5
11
131.4749999999999943
21
-91.5499999999999972
0
LINE
8
BLACK
6
CONTINUOUS
10
131.4749999999999943
20
-91.5499999999999972
11
150.5250000000000057
21
-91.5499999999999972
0
LINE
8
BLACK
6
CONTINUOUS
10
150.5250000000000057
20
-72.5
11
131.4749999999999943
21
-72.5
0
LINE
8
BLACK
6
CONTINUOUS
10
150.5250000000000057
20
-91.5499999999999972
11
150.5250000000000057
21
-72.5
0
LINE
8
BLACK
6
CONTINUOUS
10
148.4749999999999943
20
-55.5
11
148.4749999999999943
21
-74.5499999999999972
0
LINE
8
BLACK
6
CONTINUOUS
10
148.4749999999999943
20
-74.5499999999999972
11
167.5250000000000057
21
-74.5499999999999972
0
LINE
8
BLACK
6
CONTINUOUS
10
167.5250000000000057
20
-55.5
11
148.4749999999999943
21
-55.5
0
LINE
8
BLACK
6
CONTINUOUS
10
167.5250000000000057
20
-74.5499999999999972
11
167.5250000000000057
21
-55.5
0
LINE
8
BLACK
6
CONTINUOUS
10
165.4749999999999943
20
-106.5
11
165.4749999999999943
21
-125.5499999999999972
0
LINE
8
BLACK
6
CONTINUOUS
10
165.4749999999999943
20
-125.5499999999999972
11
184.5250000000000057
21
-125.5499999999999972
0
LINE
8
BLACK
6
CONTINUOUS
10
184.5250000000000057
20
-106.5
11
165.4749999999999943
21
-106.5
0
LINE
8
BLACK
6
CONTINUOUS
10
184.5250000000000057
20
-125.5499999999999972
11
184.5250000000000057
21
-106.5
0
LINE
8
BLACK
6
CONTINUOUS
10
114.4749999999999943
20
-72.5
11
114.4749999999999943
21
-91.5499999999999972
0
LINE
8
BLACK
6
CONTINUOUS
10
114.4749999999999943
20
-91.5499999999999972
11
133.5250000000000057
21
-91.5499999999999972
0
LINE
8
BLACK
6
CONTINUOUS
10
133.5250000000000057
20
-72.5
11
114.4749999999999943
21
-72.5
0
LINE
8
BLACK
6
CONTINUOUS
10
133.5250000000000057
20
-91.5499999999999972
11
133.5250000000000057
21
-72.5
0
LINE
8
BLACK
6
CONTINUOUS
10
182.4749999999999943
20
-72.5
11
182.4749999999999943
21
-91.5499999999999972
0
LINE
8
BLACK
6
CONTINUOUS
10
182.4749999999999943
20
-91.5499999999999972
11
201.5249999999999773
21
-91.5499999999999972
0
LINE
8
BLACK
6
CONTINUOUS
10
201.5249999999999773
20
-72.5
11
182.4749999999999943
21
-72.5
0
LINE
8
BLACK
6
CONTINUOUS
10
201.5249999999999773
20
-91.5499999999999972
11
201.5249999999999773
21
-72.5
0
LINE
8
BLACK
6
CONTINUOUS
10
165.4749999999999943
20
-72.5
11
165.4749999999999943
21
-91.5499999999999972
0
LINE
8
BLACK
6
CONTINUOUS
10
165.4749999999999943
20
-91.5499999999999972
11
184.5250000000000057
21
-91.5499999999999972
0
LINE
8
BLACK
6
CONTINUOUS
10
184.5250000000000057
20
-72.5
11
165.4749999999999943
21
-72.5
0
LINE
8
BLACK
6
CONTINUOUS
10
184.5250000000000057
20
-91.5499999999999972
11
184.5250000000000057
21
-72.5
  0
ENDSEC
  0
EOF
