  0
SECTION
  2
HEADER
  9
$ANGBASE
  50
0.0
  9
$ANGDIR
  70
1
  9
$MEASUREMENT
  70
1
  0
ENDSEC
  0
SECTION
  2
TABLES
  0
TABLE
  2
LTYPE
  70
4
  0
LTYPE
  5
40F
  2
CONTINUOUS
  70
0
  3
Solid line
  72
65
  73
0
  40
0.0
  0
LTYPE
  5
410
  2
DASHDOT
 70
0
  3
Dash Dot ____ _ ____ _
 72
65
 73
4
 40
2.0
 49
1.25
 49
-0.25
 49
0.25
 49
-0.25
  0
LTYPE
  5
411
  2
DASHED
 70
0
  3
Dashed __ __ __ __ __
 72
65
 73
2
 40
0.75
 49
0.5
 49
-0.25
  0
LTYPE
  5
43B
  2
DOTTED
 70
0
  3
Dotted .  .  .  .
 72
65
 73
2
 40
0.2
 49
0.0
 49
-0.2
  0
ENDTAB
  0
TABLE
  2
STYLE
  70
4
  0
STYLE
  2
KICAD
  70
0
  40
0
  41
1
  42
1
  50
0
  71
0
  3
isocp.shx
  0
STYLE
  2
KICADB
  70
0
  40
0
  41
1
  42
1
  50
0
  71
0
  3
isocp.shx
  0
STYLE
  2
KICADI
  70
0
  40
0
  41
1
  42
1
  50
15
  71
0
  3
isocp.shx
  0
STYLE
  2
KICADBI
  70
0
  40
0
  41
1
  42
1
  50
15
  71
0
  3
isocp.shx
  0
ENDTAB
  0
TABLE
  2
LAYER
  70
1
  0
LAYER
  2
BLACK
  70
0
  62
7
  6
CONTINUOUS
  0
ENDTAB
  0
ENDSEC
  0
SECTION
  2
ENTITIES
0
LINE
8
BLACK
6
CONTINUOUS
10
102.4749999999999943
20
-136.6500000000000057
11
211.4749999999999943
21
-136.6500000000000057
0
LINE
8
BLACK
6
CONTINUOUS
10
102.4749999999999943
20
-58.6499999999999986
11
102.4749999999999943
21
-136.6500000000000057
0
LINE
8
BLACK
6
CONTINUOUS
10
211.4749999999999943
20
-58.6499999999999986
11
102.4749999999999943
21
-58.6499999999999986
0
LINE
8
BLACK
6
CONTINUOUS
10
211.4749999999999943
20
-136.6500000000000057
11
211.4749999999999943
21
-58.6499999999999986
0
LINE
8
BLACK
6
CONTINUOUS
10
195.816552999999999
20
-79.602452999999997
11
195.816552999999999
21
-78.0022529999999961
0
LINE
8
BLACK
6
CONTINUOUS
10
196.1975529999999992
20
-77.6212529999999958
11
197.8485529999999812
21
-77.6212529999999958
0
LINE
8
BLACK
6
CONTINUOUS
10
197.5437529999999811
20
-80.2882529999999974
11
196.5023529999999994
21
-80.2882529999999974
0
LINE
8
BLACK
6
CONTINUOUS
10
198.2295529999999815
20
-78.0022529999999961
11
198.2295529999999815
21
-79.602452999999997
0
LINE
8
BLACK
6
CONTINUOUS
10
203.842552999999981
20
-70.2647469999999998
11
203.842552999999981
21
-68.6137470000000036
0
LINE
8
BLACK
6
CONTINUOUS
10
204.2235529999999812
20
-68.2327470000000034
11
205.8237529999999822
21
-68.2327470000000034
0
LINE
8
BLACK
6
CONTINUOUS
10
205.8237529999999822
20
-70.6457470000000001
11
204.2235529999999812
21
-70.6457470000000001
0
LINE
8
BLACK
6
CONTINUOUS
10
206.5095529999999826
20
-68.9185470000000038
11
206.5095529999999826
21
-69.9599469999999997
0
ARC
8
BLACK
10
196.1975499999999784
20
-78.0022499999999894
40
0.3809970000118111
50
-270.00045115
51
-179.99954885
0
ARC
8
BLACK
10
196.0643000000000029
20
-80.0404999999999944
40
0.5032531671216784
50
-29.49153157
51
119.49127326
0
ARC
8
BLACK
10
197.9817999999999927
20
-80.0404999999999944
40
0.5032561208947189
50
-299.49186786
51
-150.50813214
0
ARC
8
BLACK
10
197.848559999999992
20
-78.0022499999999894
40
0.380997000064305
50
-0.00045116
51
90.00105269
0
ARC
8
BLACK
10
204.2235450000000014
20
-68.6137389999999954
40
0.3809920000839913
50
-270.00120309
51
-179.99879691
0
ARC
8
BLACK
10
204.2235489999999913
20
-70.2647509999999897
40
0.3809960000209976
50
-180.00060154
51
-89.99939846
0
ARC
8
BLACK
10
206.2617999999999938
20
-70.3979939999999971
40
0.5032561208947189
50
-299.49186786
51
-150.50813214
0
ARC
8
BLACK
10
206.2617999999999938
20
-68.4804999999999922
40
0.5032561208947189
50
-209.49186786
51
-60.50813214
0
CIRCLE
8
BLACK
10
104.7986999999999966
20
-62.8369
40
2.4499999999999997
0
CIRCLE
8
BLACK
10
195.4749999999999943
20
-85.6499999999999915
40
2.4499999999999997
0
CIRCLE
8
BLACK
10
208.4749999999999943
20
-132.6500000000000057
40
2.4499999999999997
0
CIRCLE
8
BLACK
10
104.9986999999999995
20
-132.6676999999999964
40
2.4499999999999997
  0
TEXT
  7
KICAD
  8
BLACK
  10
210.4134999999999991
  11
210.4134999999999991
  20
-92.2719000000000023
  21
-92.2719000000000023
  40
1.
  41
0.8999999999999999
  50
90.00000000
  51
0.00000000
  71
2
  72
1
  73
2
  1
MSK-12D19
0
LINE
8
BLACK
6
CONTINUOUS
10
155.7724000000000046
20
-79.8164999999999907
11
174.8223999999999876
21
-79.8164999999999907
0
LINE
8
BLACK
6
CONTINUOUS
10
155.7724000000000046
20
-98.866500000000002
11
155.7724000000000046
21
-79.8164999999999907
0
LINE
8
BLACK
6
CONTINUOUS
10
158.2973999999999819
20
-82.3414999999999964
11
158.2973999999999819
21
-83.3414999999999964
0
LINE
8
BLACK
6
CONTINUOUS
10
158.2973999999999819
20
-95.3414999999999964
11
158.2973999999999819
21
-96.3414999999999964
0
LINE
8
BLACK
6
CONTINUOUS
10
158.2973999999999819
20
-96.3414999999999964
11
159.2973999999999819
21
-96.3414999999999964
0
LINE
8
BLACK
6
CONTINUOUS
10
159.2973999999999819
20
-82.3414999999999964
11
158.2973999999999819
21
-82.3414999999999964
0
LINE
8
BLACK
6
CONTINUOUS
10
171.2973999999999819
20
-82.3414999999999964
11
172.2973999999999819
21
-82.3414999999999964
0
LINE
8
BLACK
6
CONTINUOUS
10
172.2973999999999819
20
-82.3414999999999964
11
172.2973999999999819
21
-83.3414999999999964
0
LINE
8
BLACK
6
CONTINUOUS
10
172.2973999999999819
20
-95.3414999999999964
11
172.2973999999999819
21
-96.3414999999999964
0
LINE
8
BLACK
6
CONTINUOUS
10
172.2973999999999819
20
-96.3414999999999964
11
171.2973999999999819
21
-96.3414999999999964
0
LINE
8
BLACK
6
CONTINUOUS
10
174.8223999999999876
20
-79.8164999999999907
11
174.8223999999999876
21
-98.866500000000002
0
LINE
8
BLACK
6
CONTINUOUS
10
174.8223999999999876
20
-98.866500000000002
11
155.7724000000000046
21
-98.866500000000002
0
LINE
8
BLACK
6
CONTINUOUS
10
172.7724000000000046
20
-79.8164999999999907
11
191.8223999999999876
21
-79.8164999999999907
0
LINE
8
BLACK
6
CONTINUOUS
10
172.7724000000000046
20
-98.866500000000002
11
172.7724000000000046
21
-79.8164999999999907
0
LINE
8
BLACK
6
CONTINUOUS
10
175.2973999999999819
20
-82.3414999999999964
11
175.2973999999999819
21
-83.3414999999999964
0
LINE
8
BLACK
6
CONTINUOUS
10
175.2973999999999819
20
-95.3414999999999964
11
175.2973999999999819
21
-96.3414999999999964
0
LINE
8
BLACK
6
CONTINUOUS
10
175.2973999999999819
20
-96.3414999999999964
11
176.2973999999999819
21
-96.3414999999999964
0
LINE
8
BLACK
6
CONTINUOUS
10
176.2973999999999819
20
-82.3414999999999964
11
175.2973999999999819
21
-82.3414999999999964
0
LINE
8
BLACK
6
CONTINUOUS
10
188.2973999999999819
20
-82.3414999999999964
11
189.2973999999999819
21
-82.3414999999999964
0
LINE
8
BLACK
6
CONTINUOUS
10
189.2973999999999819
20
-82.3414999999999964
11
189.2973999999999819
21
-83.3414999999999964
0
LINE
8
BLACK
6
CONTINUOUS
10
189.2973999999999819
20
-95.3414999999999964
11
189.2973999999999819
21
-96.3414999999999964
0
LINE
8
BLACK
6
CONTINUOUS
10
189.2973999999999819
20
-96.3414999999999964
11
188.2973999999999819
21
-96.3414999999999964
0
LINE
8
BLACK
6
CONTINUOUS
10
191.8223999999999876
20
-79.8164999999999907
11
191.8223999999999876
21
-98.866500000000002
0
LINE
8
BLACK
6
CONTINUOUS
10
191.8223999999999876
20
-98.866500000000002
11
172.7724000000000046
21
-98.866500000000002
0
LINE
8
BLACK
6
CONTINUOUS
10
138.7724000000000046
20
-113.8164999999999907
11
157.8223999999999876
21
-113.8164999999999907
0
LINE
8
BLACK
6
CONTINUOUS
10
138.7724000000000046
20
-132.866500000000002
11
138.7724000000000046
21
-113.8164999999999907
0
LINE
8
BLACK
6
CONTINUOUS
10
141.2973999999999819
20
-116.3414999999999964
11
141.2973999999999819
21
-117.3414999999999964
0
LINE
8
BLACK
6
CONTINUOUS
10
141.2973999999999819
20
-129.3414999999999964
11
141.2973999999999819
21
-130.3414999999999964
0
LINE
8
BLACK
6
CONTINUOUS
10
141.2973999999999819
20
-130.3414999999999964
11
142.2973999999999819
21
-130.3414999999999964
0
LINE
8
BLACK
6
CONTINUOUS
10
142.2973999999999819
20
-116.3414999999999964
11
141.2973999999999819
21
-116.3414999999999964
0
LINE
8
BLACK
6
CONTINUOUS
10
154.2973999999999819
20
-116.3414999999999964
11
155.2973999999999819
21
-116.3414999999999964
0
LINE
8
BLACK
6
CONTINUOUS
10
155.2973999999999819
20
-116.3414999999999964
11
155.2973999999999819
21
-117.3414999999999964
0
LINE
8
BLACK
6
CONTINUOUS
10
155.2973999999999819
20
-129.3414999999999964
11
155.2973999999999819
21
-130.3414999999999964
0
LINE
8
BLACK
6
CONTINUOUS
10
155.2973999999999819
20
-130.3414999999999964
11
154.2973999999999819
21
-130.3414999999999964
0
LINE
8
BLACK
6
CONTINUOUS
10
157.8223999999999876
20
-113.8164999999999907
11
157.8223999999999876
21
-132.866500000000002
0
LINE
8
BLACK
6
CONTINUOUS
10
157.8223999999999876
20
-132.866500000000002
11
138.7724000000000046
21
-132.866500000000002
0
LINE
8
BLACK
6
CONTINUOUS
10
172.7724000000000046
20
-96.8164999999999907
11
191.8223999999999876
21
-96.8164999999999907
0
LINE
8
BLACK
6
CONTINUOUS
10
172.7724000000000046
20
-115.8664999999999878
11
172.7724000000000046
21
-96.8164999999999907
0
LINE
8
BLACK
6
CONTINUOUS
10
175.2973999999999819
20
-99.3414999999999964
11
175.2973999999999819
21
-100.3414999999999964
0
LINE
8
BLACK
6
CONTINUOUS
10
175.2973999999999819
20
-112.3414999999999964
11
175.2973999999999819
21
-113.3414999999999964
0
LINE
8
BLACK
6
CONTINUOUS
10
175.2973999999999819
20
-113.3414999999999964
11
176.2973999999999819
21
-113.3414999999999964
0
LINE
8
BLACK
6
CONTINUOUS
10
176.2973999999999819
20
-99.3414999999999964
11
175.2973999999999819
21
-99.3414999999999964
0
LINE
8
BLACK
6
CONTINUOUS
10
188.2973999999999819
20
-99.3414999999999964
11
189.2973999999999819
21
-99.3414999999999964
0
LINE
8
BLACK
6
CONTINUOUS
10
189.2973999999999819
20
-99.3414999999999964
11
189.2973999999999819
21
-100.3414999999999964
0
LINE
8
BLACK
6
CONTINUOUS
10
189.2973999999999819
20
-112.3414999999999964
11
189.2973999999999819
21
-113.3414999999999964
0
LINE
8
BLACK
6
CONTINUOUS
10
189.2973999999999819
20
-113.3414999999999964
11
188.2973999999999819
21
-113.3414999999999964
0
LINE
8
BLACK
6
CONTINUOUS
10
191.8223999999999876
20
-96.8164999999999907
11
191.8223999999999876
21
-115.8664999999999878
0
LINE
8
BLACK
6
CONTINUOUS
10
191.8223999999999876
20
-115.8664999999999878
11
172.7724000000000046
21
-115.8664999999999878
0
LINE
8
BLACK
6
CONTINUOUS
10
104.7723999999999904
20
-62.8164999999999978
11
123.8223999999999876
21
-62.8164999999999978
0
LINE
8
BLACK
6
CONTINUOUS
10
104.7723999999999904
20
-81.866500000000002
11
104.7723999999999904
21
-62.8164999999999978
0
LINE
8
BLACK
6
CONTINUOUS
10
107.2973999999999961
20
-65.3414999999999964
11
107.2973999999999961
21
-66.3414999999999964
0
LINE
8
BLACK
6
CONTINUOUS
10
107.2973999999999961
20
-78.3414999999999964
11
107.2973999999999961
21
-79.3414999999999964
0
LINE
8
BLACK
6
CONTINUOUS
10
107.2973999999999961
20
-79.3414999999999964
11
108.2973999999999961
21
-79.3414999999999964
0
LINE
8
BLACK
6
CONTINUOUS
10
108.2973999999999961
20
-65.3414999999999964
11
107.2973999999999961
21
-65.3414999999999964
0
LINE
8
BLACK
6
CONTINUOUS
10
120.2973999999999961
20
-65.3414999999999964
11
121.2973999999999961
21
-65.3414999999999964
0
LINE
8
BLACK
6
CONTINUOUS
10
121.2973999999999961
20
-65.3414999999999964
11
121.2973999999999961
21
-66.3414999999999964
0
LINE
8
BLACK
6
CONTINUOUS
10
121.2973999999999961
20
-78.3414999999999964
11
121.2973999999999961
21
-79.3414999999999964
0
LINE
8
BLACK
6
CONTINUOUS
10
121.2973999999999961
20
-79.3414999999999964
11
120.2973999999999961
21
-79.3414999999999964
0
LINE
8
BLACK
6
CONTINUOUS
10
123.8223999999999876
20
-62.8164999999999978
11
123.8223999999999876
21
-81.866500000000002
0
LINE
8
BLACK
6
CONTINUOUS
10
123.8223999999999876
20
-81.866500000000002
11
104.7723999999999904
21
-81.866500000000002
0
LINE
8
BLACK
6
CONTINUOUS
10
155.7724000000000046
20
-62.8164999999999978
11
174.8223999999999876
21
-62.8164999999999978
0
LINE
8
BLACK
6
CONTINUOUS
10
155.7724000000000046
20
-81.866500000000002
11
155.7724000000000046
21
-62.8164999999999978
0
LINE
8
BLACK
6
CONTINUOUS
10
158.2973999999999819
20
-65.3414999999999964
11
158.2973999999999819
21
-66.3414999999999964
0
LINE
8
BLACK
6
CONTINUOUS
10
158.2973999999999819
20
-78.3414999999999964
11
158.2973999999999819
21
-79.3414999999999964
0
LINE
8
BLACK
6
CONTINUOUS
10
158.2973999999999819
20
-79.3414999999999964
11
159.2973999999999819
21
-79.3414999999999964
0
LINE
8
BLACK
6
CONTINUOUS
10
159.2973999999999819
20
-65.3414999999999964
11
158.2973999999999819
21
-65.3414999999999964
0
LINE
8
BLACK
6
CONTINUOUS
10
171.2973999999999819
20
-65.3414999999999964
11
172.2973999999999819
21
-65.3414999999999964
0
LINE
8
BLACK
6
CONTINUOUS
10
172.2973999999999819
20
-65.3414999999999964
11
172.2973999999999819
21
-66.3414999999999964
0
LINE
8
BLACK
6
CONTINUOUS
10
172.2973999999999819
20
-78.3414999999999964
11
172.2973999999999819
21
-79.3414999999999964
0
LINE
8
BLACK
6
CONTINUOUS
10
172.2973999999999819
20
-79.3414999999999964
11
171.2973999999999819
21
-79.3414999999999964
0
LINE
8
BLACK
6
CONTINUOUS
10
174.8223999999999876
20
-62.8164999999999978
11
174.8223999999999876
21
-81.866500000000002
0
LINE
8
BLACK
6
CONTINUOUS
10
174.8223999999999876
20
-81.866500000000002
11
155.7724000000000046
21
-81.866500000000002
0
LINE
8
BLACK
6
CONTINUOUS
10
138.7724000000000046
20
-79.8164999999999907
11
157.8223999999999876
21
-79.8164999999999907
0
LINE
8
BLACK
6
CONTINUOUS
10
138.7724000000000046
20
-98.866500000000002
11
138.7724000000000046
21
-79.8164999999999907
0
LINE
8
BLACK
6
CONTINUOUS
10
141.2973999999999819
20
-82.3414999999999964
11
141.2973999999999819
21
-83.3414999999999964
0
LINE
8
BLACK
6
CONTINUOUS
10
141.2973999999999819
20
-95.3414999999999964
11
141.2973999999999819
21
-96.3414999999999964
0
LINE
8
BLACK
6
CONTINUOUS
10
141.2973999999999819
20
-96.3414999999999964
11
142.2973999999999819
21
-96.3414999999999964
0
LINE
8
BLACK
6
CONTINUOUS
10
142.2973999999999819
20
-82.3414999999999964
11
141.2973999999999819
21
-82.3414999999999964
0
LINE
8
BLACK
6
CONTINUOUS
10
154.2973999999999819
20
-82.3414999999999964
11
155.2973999999999819
21
-82.3414999999999964
0
LINE
8
BLACK
6
CONTINUOUS
10
155.2973999999999819
20
-82.3414999999999964
11
155.2973999999999819
21
-83.3414999999999964
0
LINE
8
BLACK
6
CONTINUOUS
10
155.2973999999999819
20
-95.3414999999999964
11
155.2973999999999819
21
-96.3414999999999964
0
LINE
8
BLACK
6
CONTINUOUS
10
155.2973999999999819
20
-96.3414999999999964
11
154.2973999999999819
21
-96.3414999999999964
0
LINE
8
BLACK
6
CONTINUOUS
10
157.8223999999999876
20
-79.8164999999999907
11
157.8223999999999876
21
-98.866500000000002
0
LINE
8
BLACK
6
CONTINUOUS
10
157.8223999999999876
20
-98.866500000000002
11
138.7724000000000046
21
-98.866500000000002
0
LINE
8
BLACK
6
CONTINUOUS
10
138.7724000000000046
20
-62.8164999999999978
11
157.8223999999999876
21
-62.8164999999999978
0
LINE
8
BLACK
6
CONTINUOUS
10
138.7724000000000046
20
-81.866500000000002
11
138.7724000000000046
21
-62.8164999999999978
0
LINE
8
BLACK
6
CONTINUOUS
10
141.2973999999999819
20
-65.3414999999999964
11
141.2973999999999819
21
-66.3414999999999964
0
LINE
8
BLACK
6
CONTINUOUS
10
141.2973999999999819
20
-78.3414999999999964
11
141.2973999999999819
21
-79.3414999999999964
0
LINE
8
BLACK
6
CONTINUOUS
10
141.2973999999999819
20
-79.3414999999999964
11
142.2973999999999819
21
-79.3414999999999964
0
LINE
8
BLACK
6
CONTINUOUS
10
142.2973999999999819
20
-65.3414999999999964
11
141.2973999999999819
21
-65.3414999999999964
0
LINE
8
BLACK
6
CONTINUOUS
10
154.2973999999999819
20
-65.3414999999999964
11
155.2973999999999819
21
-65.3414999999999964
0
LINE
8
BLACK
6
CONTINUOUS
10
155.2973999999999819
20
-65.3414999999999964
11
155.2973999999999819
21
-66.3414999999999964
0
LINE
8
BLACK
6
CONTINUOUS
10
155.2973999999999819
20
-78.3414999999999964
11
155.2973999999999819
21
-79.3414999999999964
0
LINE
8
BLACK
6
CONTINUOUS
10
155.2973999999999819
20
-79.3414999999999964
11
154.2973999999999819
21
-79.3414999999999964
0
LINE
8
BLACK
6
CONTINUOUS
10
157.8223999999999876
20
-62.8164999999999978
11
157.8223999999999876
21
-81.866500000000002
0
LINE
8
BLACK
6
CONTINUOUS
10
157.8223999999999876
20
-81.866500000000002
11
138.7724000000000046
21
-81.866500000000002
0
LINE
8
BLACK
6
CONTINUOUS
10
155.7724000000000046
20
-96.8164999999999907
11
174.8223999999999876
21
-96.8164999999999907
0
LINE
8
BLACK
6
CONTINUOUS
10
155.7724000000000046
20
-115.8664999999999878
11
155.7724000000000046
21
-96.8164999999999907
0
LINE
8
BLACK
6
CONTINUOUS
10
158.2973999999999819
20
-99.3414999999999964
11
158.2973999999999819
21
-100.3414999999999964
0
LINE
8
BLACK
6
CONTINUOUS
10
158.2973999999999819
20
-112.3414999999999964
11
158.2973999999999819
21
-113.3414999999999964
0
LINE
8
BLACK
6
CONTINUOUS
10
158.2973999999999819
20
-113.3414999999999964
11
159.2973999999999819
21
-113.3414999999999964
0
LINE
8
BLACK
6
CONTINUOUS
10
159.2973999999999819
20
-99.3414999999999964
11
158.2973999999999819
21
-99.3414999999999964
0
LINE
8
BLACK
6
CONTINUOUS
10
171.2973999999999819
20
-99.3414999999999964
11
172.2973999999999819
21
-99.3414999999999964
0
LINE
8
BLACK
6
CONTINUOUS
10
172.2973999999999819
20
-99.3414999999999964
11
172.2973999999999819
21
-100.3414999999999964
0
LINE
8
BLACK
6
CONTINUOUS
10
172.2973999999999819
20
-112.3414999999999964
11
172.2973999999999819
21
-113.3414999999999964
0
LINE
8
BLACK
6
CONTINUOUS
10
172.2973999999999819
20
-113.3414999999999964
11
171.2973999999999819
21
-113.3414999999999964
0
LINE
8
BLACK
6
CONTINUOUS
10
174.8223999999999876
20
-96.8164999999999907
11
174.8223999999999876
21
-115.8664999999999878
0
LINE
8
BLACK
6
CONTINUOUS
10
174.8223999999999876
20
-115.8664999999999878
11
155.7724000000000046
21
-115.8664999999999878
0
LINE
8
BLACK
6
CONTINUOUS
10
138.7724000000000046
20
-96.8164999999999907
11
157.8223999999999876
21
-96.8164999999999907
0
LINE
8
BLACK
6
CONTINUOUS
10
138.7724000000000046
20
-115.8664999999999878
11
138.7724000000000046
21
-96.8164999999999907
0
LINE
8
BLACK
6
CONTINUOUS
10
141.2973999999999819
20
-99.3414999999999964
11
141.2973999999999819
21
-100.3414999999999964
0
LINE
8
BLACK
6
CONTINUOUS
10
141.2973999999999819
20
-112.3414999999999964
11
141.2973999999999819
21
-113.3414999999999964
0
LINE
8
BLACK
6
CONTINUOUS
10
141.2973999999999819
20
-113.3414999999999964
11
142.2973999999999819
21
-113.3414999999999964
0
LINE
8
BLACK
6
CONTINUOUS
10
142.2973999999999819
20
-99.3414999999999964
11
141.2973999999999819
21
-99.3414999999999964
0
LINE
8
BLACK
6
CONTINUOUS
10
154.2973999999999819
20
-99.3414999999999964
11
155.2973999999999819
21
-99.3414999999999964
0
LINE
8
BLACK
6
CONTINUOUS
10
155.2973999999999819
20
-99.3414999999999964
11
155.2973999999999819
21
-100.3414999999999964
0
LINE
8
BLACK
6
CONTINUOUS
10
155.2973999999999819
20
-112.3414999999999964
11
155.2973999999999819
21
-113.3414999999999964
0
LINE
8
BLACK
6
CONTINUOUS
10
155.2973999999999819
20
-113.3414999999999964
11
154.2973999999999819
21
-113.3414999999999964
0
LINE
8
BLACK
6
CONTINUOUS
10
157.8223999999999876
20
-96.8164999999999907
11
157.8223999999999876
21
-115.8664999999999878
0
LINE
8
BLACK
6
CONTINUOUS
10
157.8223999999999876
20
-115.8664999999999878
11
138.7724000000000046
21
-115.8664999999999878
0
LINE
8
BLACK
6
CONTINUOUS
10
121.7723999999999904
20
-62.8164999999999978
11
140.8223999999999876
21
-62.8164999999999978
0
LINE
8
BLACK
6
CONTINUOUS
10
121.7723999999999904
20
-81.866500000000002
11
121.7723999999999904
21
-62.8164999999999978
0
LINE
8
BLACK
6
CONTINUOUS
10
124.2973999999999961
20
-65.3414999999999964
11
124.2973999999999961
21
-66.3414999999999964
0
LINE
8
BLACK
6
CONTINUOUS
10
124.2973999999999961
20
-78.3414999999999964
11
124.2973999999999961
21
-79.3414999999999964
0
LINE
8
BLACK
6
CONTINUOUS
10
124.2973999999999961
20
-79.3414999999999964
11
125.2973999999999961
21
-79.3414999999999964
0
LINE
8
BLACK
6
CONTINUOUS
10
125.2973999999999961
20
-65.3414999999999964
11
124.2973999999999961
21
-65.3414999999999964
0
LINE
8
BLACK
6
CONTINUOUS
10
137.2973999999999819
20
-65.3414999999999964
11
138.2973999999999819
21
-65.3414999999999964
0
LINE
8
BLACK
6
CONTINUOUS
10
138.2973999999999819
20
-65.3414999999999964
11
138.2973999999999819
21
-66.3414999999999964
0
LINE
8
BLACK
6
CONTINUOUS
10
138.2973999999999819
20
-78.3414999999999964
11
138.2973999999999819
21
-79.3414999999999964
0
LINE
8
BLACK
6
CONTINUOUS
10
138.2973999999999819
20
-79.3414999999999964
11
137.2973999999999819
21
-79.3414999999999964
0
LINE
8
BLACK
6
CONTINUOUS
10
140.8223999999999876
20
-62.8164999999999978
11
140.8223999999999876
21
-81.866500000000002
0
LINE
8
BLACK
6
CONTINUOUS
10
140.8223999999999876
20
-81.866500000000002
11
121.7723999999999904
21
-81.866500000000002
0
LINE
8
BLACK
6
CONTINUOUS
10
104.7723999999999904
20
-113.8164999999999907
11
123.8223999999999876
21
-113.8164999999999907
0
LINE
8
BLACK
6
CONTINUOUS
10
104.7723999999999904
20
-132.866500000000002
11
104.7723999999999904
21
-113.8164999999999907
0
LINE
8
BLACK
6
CONTINUOUS
10
107.2973999999999961
20
-116.3414999999999964
11
107.2973999999999961
21
-117.3414999999999964
0
LINE
8
BLACK
6
CONTINUOUS
10
107.2973999999999961
20
-129.3414999999999964
11
107.2973999999999961
21
-130.3414999999999964
0
LINE
8
BLACK
6
CONTINUOUS
10
107.2973999999999961
20
-130.3414999999999964
11
108.2973999999999961
21
-130.3414999999999964
0
LINE
8
BLACK
6
CONTINUOUS
10
108.2973999999999961
20
-116.3414999999999964
11
107.2973999999999961
21
-116.3414999999999964
0
LINE
8
BLACK
6
CONTINUOUS
10
120.2973999999999961
20
-116.3414999999999964
11
121.2973999999999961
21
-116.3414999999999964
0
LINE
8
BLACK
6
CONTINUOUS
10
121.2973999999999961
20
-116.3414999999999964
11
121.2973999999999961
21
-117.3414999999999964
0
LINE
8
BLACK
6
CONTINUOUS
10
121.2973999999999961
20
-129.3414999999999964
11
121.2973999999999961
21
-130.3414999999999964
0
LINE
8
BLACK
6
CONTINUOUS
10
121.2973999999999961
20
-130.3414999999999964
11
120.2973999999999961
21
-130.3414999999999964
0
LINE
8
BLACK
6
CONTINUOUS
10
123.8223999999999876
20
-113.8164999999999907
11
123.8223999999999876
21
-132.866500000000002
0
LINE
8
BLACK
6
CONTINUOUS
10
123.8223999999999876
20
-132.866500000000002
11
104.7723999999999904
21
-132.866500000000002
0
LINE
8
BLACK
6
CONTINUOUS
10
172.7724000000000046
20
-62.8164999999999978
11
191.8223999999999876
21
-62.8164999999999978
0
LINE
8
BLACK
6
CONTINUOUS
10
172.7724000000000046
20
-81.866500000000002
11
172.7724000000000046
21
-62.8164999999999978
0
LINE
8
BLACK
6
CONTINUOUS
10
175.2973999999999819
20
-65.3414999999999964
11
175.2973999999999819
21
-66.3414999999999964
0
LINE
8
BLACK
6
CONTINUOUS
10
175.2973999999999819
20
-78.3414999999999964
11
175.2973999999999819
21
-79.3414999999999964
0
LINE
8
BLACK
6
CONTINUOUS
10
175.2973999999999819
20
-79.3414999999999964
11
176.2973999999999819
21
-79.3414999999999964
0
LINE
8
BLACK
6
CONTINUOUS
10
176.2973999999999819
20
-65.3414999999999964
11
175.2973999999999819
21
-65.3414999999999964
0
LINE
8
BLACK
6
CONTINUOUS
10
188.2973999999999819
20
-65.3414999999999964
11
189.2973999999999819
21
-65.3414999999999964
0
LINE
8
BLACK
6
CONTINUOUS
10
189.2973999999999819
20
-65.3414999999999964
11
189.2973999999999819
21
-66.3414999999999964
0
LINE
8
BLACK
6
CONTINUOUS
10
189.2973999999999819
20
-78.3414999999999964
11
189.2973999999999819
21
-79.3414999999999964
0
LINE
8
BLACK
6
CONTINUOUS
10
189.2973999999999819
20
-79.3414999999999964
11
188.2973999999999819
21
-79.3414999999999964
0
LINE
8
BLACK
6
CONTINUOUS
10
191.8223999999999876
20
-62.8164999999999978
11
191.8223999999999876
21
-81.866500000000002
0
LINE
8
BLACK
6
CONTINUOUS
10
191.8223999999999876
20
-81.866500000000002
11
172.7724000000000046
21
-81.866500000000002
0
LINE
8
BLACK
6
CONTINUOUS
10
189.7724000000000046
20
-113.8164999999999907
11
208.8223999999999876
21
-113.8164999999999907
0
LINE
8
BLACK
6
CONTINUOUS
10
189.7724000000000046
20
-132.866500000000002
11
189.7724000000000046
21
-113.8164999999999907
0
LINE
8
BLACK
6
CONTINUOUS
10
192.2973999999999819
20
-116.3414999999999964
11
192.2973999999999819
21
-117.3414999999999964
0
LINE
8
BLACK
6
CONTINUOUS
10
192.2973999999999819
20
-129.3414999999999964
11
192.2973999999999819
21
-130.3414999999999964
0
LINE
8
BLACK
6
CONTINUOUS
10
192.2973999999999819
20
-130.3414999999999964
11
193.2973999999999819
21
-130.3414999999999964
0
LINE
8
BLACK
6
CONTINUOUS
10
193.2973999999999819
20
-116.3414999999999964
11
192.2973999999999819
21
-116.3414999999999964
0
LINE
8
BLACK
6
CONTINUOUS
10
205.2973999999999819
20
-116.3414999999999964
11
206.2973999999999819
21
-116.3414999999999964
0
LINE
8
BLACK
6
CONTINUOUS
10
206.2973999999999819
20
-116.3414999999999964
11
206.2973999999999819
21
-117.3414999999999964
0
LINE
8
BLACK
6
CONTINUOUS
10
206.2973999999999819
20
-129.3414999999999964
11
206.2973999999999819
21
-130.3414999999999964
0
LINE
8
BLACK
6
CONTINUOUS
10
206.2973999999999819
20
-130.3414999999999964
11
205.2973999999999819
21
-130.3414999999999964
0
LINE
8
BLACK
6
CONTINUOUS
10
208.8223999999999876
20
-113.8164999999999907
11
208.8223999999999876
21
-132.866500000000002
0
LINE
8
BLACK
6
CONTINUOUS
10
208.8223999999999876
20
-132.866500000000002
11
189.7724000000000046
21
-132.866500000000002
0
LINE
8
BLACK
6
CONTINUOUS
10
121.7723999999999904
20
-79.8164999999999907
11
140.8223999999999876
21
-79.8164999999999907
0
LINE
8
BLACK
6
CONTINUOUS
10
121.7723999999999904
20
-98.866500000000002
11
121.7723999999999904
21
-79.8164999999999907
0
LINE
8
BLACK
6
CONTINUOUS
10
124.2973999999999961
20
-82.3414999999999964
11
124.2973999999999961
21
-83.3414999999999964
0
LINE
8
BLACK
6
CONTINUOUS
10
124.2973999999999961
20
-95.3414999999999964
11
124.2973999999999961
21
-96.3414999999999964
0
LINE
8
BLACK
6
CONTINUOUS
10
124.2973999999999961
20
-96.3414999999999964
11
125.2973999999999961
21
-96.3414999999999964
0
LINE
8
BLACK
6
CONTINUOUS
10
125.2973999999999961
20
-82.3414999999999964
11
124.2973999999999961
21
-82.3414999999999964
0
LINE
8
BLACK
6
CONTINUOUS
10
137.2973999999999819
20
-82.3414999999999964
11
138.2973999999999819
21
-82.3414999999999964
0
LINE
8
BLACK
6
CONTINUOUS
10
138.2973999999999819
20
-82.3414999999999964
11
138.2973999999999819
21
-83.3414999999999964
0
LINE
8
BLACK
6
CONTINUOUS
10
138.2973999999999819
20
-95.3414999999999964
11
138.2973999999999819
21
-96.3414999999999964
0
LINE
8
BLACK
6
CONTINUOUS
10
138.2973999999999819
20
-96.3414999999999964
11
137.2973999999999819
21
-96.3414999999999964
0
LINE
8
BLACK
6
CONTINUOUS
10
140.8223999999999876
20
-79.8164999999999907
11
140.8223999999999876
21
-98.866500000000002
0
LINE
8
BLACK
6
CONTINUOUS
10
140.8223999999999876
20
-98.866500000000002
11
121.7723999999999904
21
-98.866500000000002
0
LINE
8
BLACK
6
CONTINUOUS
10
189.7724000000000046
20
-96.8164999999999907
11
208.8223999999999876
21
-96.8164999999999907
0
LINE
8
BLACK
6
CONTINUOUS
10
189.7724000000000046
20
-115.8664999999999878
11
189.7724000000000046
21
-96.8164999999999907
0
LINE
8
BLACK
6
CONTINUOUS
10
192.2973999999999819
20
-99.3414999999999964
11
192.2973999999999819
21
-100.3414999999999964
0
LINE
8
BLACK
6
CONTINUOUS
10
192.2973999999999819
20
-112.3414999999999964
11
192.2973999999999819
21
-113.3414999999999964
0
LINE
8
BLACK
6
CONTINUOUS
10
192.2973999999999819
20
-113.3414999999999964
11
193.2973999999999819
21
-113.3414999999999964
0
LINE
8
BLACK
6
CONTINUOUS
10
193.2973999999999819
20
-99.3414999999999964
11
192.2973999999999819
21
-99.3414999999999964
0
LINE
8
BLACK
6
CONTINUOUS
10
205.2973999999999819
20
-99.3414999999999964
11
206.2973999999999819
21
-99.3414999999999964
0
LINE
8
BLACK
6
CONTINUOUS
10
206.2973999999999819
20
-99.3414999999999964
11
206.2973999999999819
21
-100.3414999999999964
0
LINE
8
BLACK
6
CONTINUOUS
10
206.2973999999999819
20
-112.3414999999999964
11
206.2973999999999819
21
-113.3414999999999964
0
LINE
8
BLACK
6
CONTINUOUS
10
206.2973999999999819
20
-113.3414999999999964
11
205.2973999999999819
21
-113.3414999999999964
0
LINE
8
BLACK
6
CONTINUOUS
10
208.8223999999999876
20
-96.8164999999999907
11
208.8223999999999876
21
-115.8664999999999878
0
LINE
8
BLACK
6
CONTINUOUS
10
208.8223999999999876
20
-115.8664999999999878
11
189.7724000000000046
21
-115.8664999999999878
0
LINE
8
BLACK
6
CONTINUOUS
10
104.7723999999999904
20
-96.8164999999999907
11
123.8223999999999876
21
-96.8164999999999907
0
LINE
8
BLACK
6
CONTINUOUS
10
104.7723999999999904
20
-115.8664999999999878
11
104.7723999999999904
21
-96.8164999999999907
0
LINE
8
BLACK
6
CONTINUOUS
10
107.2973999999999961
20
-99.3414999999999964
11
107.2973999999999961
21
-100.3414999999999964
0
LINE
8
BLACK
6
CONTINUOUS
10
107.2973999999999961
20
-112.3414999999999964
11
107.2973999999999961
21
-113.3414999999999964
0
LINE
8
BLACK
6
CONTINUOUS
10
107.2973999999999961
20
-113.3414999999999964
11
108.2973999999999961
21
-113.3414999999999964
0
LINE
8
BLACK
6
CONTINUOUS
10
108.2973999999999961
20
-99.3414999999999964
11
107.2973999999999961
21
-99.3414999999999964
0
LINE
8
BLACK
6
CONTINUOUS
10
120.2973999999999961
20
-99.3414999999999964
11
121.2973999999999961
21
-99.3414999999999964
0
LINE
8
BLACK
6
CONTINUOUS
10
121.2973999999999961
20
-99.3414999999999964
11
121.2973999999999961
21
-100.3414999999999964
0
LINE
8
BLACK
6
CONTINUOUS
10
121.2973999999999961
20
-112.3414999999999964
11
121.2973999999999961
21
-113.3414999999999964
0
LINE
8
BLACK
6
CONTINUOUS
10
121.2973999999999961
20
-113.3414999999999964
11
120.2973999999999961
21
-113.3414999999999964
0
LINE
8
BLACK
6
CONTINUOUS
10
123.8223999999999876
20
-96.8164999999999907
11
123.8223999999999876
21
-115.8664999999999878
0
LINE
8
BLACK
6
CONTINUOUS
10
123.8223999999999876
20
-115.8664999999999878
11
104.7723999999999904
21
-115.8664999999999878
0
LINE
8
BLACK
6
CONTINUOUS
10
104.7723999999999904
20
-79.8164999999999907
11
123.8223999999999876
21
-79.8164999999999907
0
LINE
8
BLACK
6
CONTINUOUS
10
104.7723999999999904
20
-98.866500000000002
11
104.7723999999999904
21
-79.8164999999999907
0
LINE
8
BLACK
6
CONTINUOUS
10
107.2973999999999961
20
-82.3414999999999964
11
107.2973999999999961
21
-83.3414999999999964
0
LINE
8
BLACK
6
CONTINUOUS
10
107.2973999999999961
20
-95.3414999999999964
11
107.2973999999999961
21
-96.3414999999999964
0
LINE
8
BLACK
6
CONTINUOUS
10
107.2973999999999961
20
-96.3414999999999964
11
108.2973999999999961
21
-96.3414999999999964
0
LINE
8
BLACK
6
CONTINUOUS
10
108.2973999999999961
20
-82.3414999999999964
11
107.2973999999999961
21
-82.3414999999999964
0
LINE
8
BLACK
6
CONTINUOUS
10
120.2973999999999961
20
-82.3414999999999964
11
121.2973999999999961
21
-82.3414999999999964
0
LINE
8
BLACK
6
CONTINUOUS
10
121.2973999999999961
20
-82.3414999999999964
11
121.2973999999999961
21
-83.3414999999999964
0
LINE
8
BLACK
6
CONTINUOUS
10
121.2973999999999961
20
-95.3414999999999964
11
121.2973999999999961
21
-96.3414999999999964
0
LINE
8
BLACK
6
CONTINUOUS
10
121.2973999999999961
20
-96.3414999999999964
11
120.2973999999999961
21
-96.3414999999999964
0
LINE
8
BLACK
6
CONTINUOUS
10
123.8223999999999876
20
-79.8164999999999907
11
123.8223999999999876
21
-98.866500000000002
0
LINE
8
BLACK
6
CONTINUOUS
10
123.8223999999999876
20
-98.866500000000002
11
104.7723999999999904
21
-98.866500000000002
0
LINE
8
BLACK
6
CONTINUOUS
10
155.7724000000000046
20
-113.8164999999999907
11
174.8223999999999876
21
-113.8164999999999907
0
LINE
8
BLACK
6
CONTINUOUS
10
155.7724000000000046
20
-132.866500000000002
11
155.7724000000000046
21
-113.8164999999999907
0
LINE
8
BLACK
6
CONTINUOUS
10
158.2973999999999819
20
-116.3414999999999964
11
158.2973999999999819
21
-117.3414999999999964
0
LINE
8
BLACK
6
CONTINUOUS
10
158.2973999999999819
20
-129.3414999999999964
11
158.2973999999999819
21
-130.3414999999999964
0
LINE
8
BLACK
6
CONTINUOUS
10
158.2973999999999819
20
-130.3414999999999964
11
159.2973999999999819
21
-130.3414999999999964
0
LINE
8
BLACK
6
CONTINUOUS
10
159.2973999999999819
20
-116.3414999999999964
11
158.2973999999999819
21
-116.3414999999999964
0
LINE
8
BLACK
6
CONTINUOUS
10
171.2973999999999819
20
-116.3414999999999964
11
172.2973999999999819
21
-116.3414999999999964
0
LINE
8
BLACK
6
CONTINUOUS
10
172.2973999999999819
20
-116.3414999999999964
11
172.2973999999999819
21
-117.3414999999999964
0
LINE
8
BLACK
6
CONTINUOUS
10
172.2973999999999819
20
-129.3414999999999964
11
172.2973999999999819
21
-130.3414999999999964
0
LINE
8
BLACK
6
CONTINUOUS
10
172.2973999999999819
20
-130.3414999999999964
11
171.2973999999999819
21
-130.3414999999999964
0
LINE
8
BLACK
6
CONTINUOUS
10
174.8223999999999876
20
-113.8164999999999907
11
174.8223999999999876
21
-132.866500000000002
0
LINE
8
BLACK
6
CONTINUOUS
10
174.8223999999999876
20
-132.866500000000002
11
155.7724000000000046
21
-132.866500000000002
0
LINE
8
BLACK
6
CONTINUOUS
10
121.7723999999999904
20
-113.8164999999999907
11
140.8223999999999876
21
-113.8164999999999907
0
LINE
8
BLACK
6
CONTINUOUS
10
121.7723999999999904
20
-132.866500000000002
11
121.7723999999999904
21
-113.8164999999999907
0
LINE
8
BLACK
6
CONTINUOUS
10
124.2973999999999961
20
-116.3414999999999964
11
124.2973999999999961
21
-117.3414999999999964
0
LINE
8
BLACK
6
CONTINUOUS
10
124.2973999999999961
20
-129.3414999999999964
11
124.2973999999999961
21
-130.3414999999999964
0
LINE
8
BLACK
6
CONTINUOUS
10
124.2973999999999961
20
-130.3414999999999964
11
125.2973999999999961
21
-130.3414999999999964
0
LINE
8
BLACK
6
CONTINUOUS
10
125.2973999999999961
20
-116.3414999999999964
11
124.2973999999999961
21
-116.3414999999999964
0
LINE
8
BLACK
6
CONTINUOUS
10
137.2973999999999819
20
-116.3414999999999964
11
138.2973999999999819
21
-116.3414999999999964
0
LINE
8
BLACK
6
CONTINUOUS
10
138.2973999999999819
20
-116.3414999999999964
11
138.2973999999999819
21
-117.3414999999999964
0
LINE
8
BLACK
6
CONTINUOUS
10
138.2973999999999819
20
-129.3414999999999964
11
138.2973999999999819
21
-130.3414999999999964
0
LINE
8
BLACK
6
CONTINUOUS
10
138.2973999999999819
20
-130.3414999999999964
11
137.2973999999999819
21
-130.3414999999999964
0
LINE
8
BLACK
6
CONTINUOUS
10
140.8223999999999876
20
-113.8164999999999907
11
140.8223999999999876
21
-132.866500000000002
0
LINE
8
BLACK
6
CONTINUOUS
10
140.8223999999999876
20
-132.866500000000002
11
121.7723999999999904
21
-132.866500000000002
0
LINE
8
BLACK
6
CONTINUOUS
10
121.7723999999999904
20
-96.8164999999999907
11
140.8223999999999876
21
-96.8164999999999907
0
LINE
8
BLACK
6
CONTINUOUS
10
121.7723999999999904
20
-115.8664999999999878
11
121.7723999999999904
21
-96.8164999999999907
0
LINE
8
BLACK
6
CONTINUOUS
10
124.2973999999999961
20
-99.3414999999999964
11
124.2973999999999961
21
-100.3414999999999964
0
LINE
8
BLACK
6
CONTINUOUS
10
124.2973999999999961
20
-112.3414999999999964
11
124.2973999999999961
21
-113.3414999999999964
0
LINE
8
BLACK
6
CONTINUOUS
10
124.2973999999999961
20
-113.3414999999999964
11
125.2973999999999961
21
-113.3414999999999964
0
LINE
8
BLACK
6
CONTINUOUS
10
125.2973999999999961
20
-99.3414999999999964
11
124.2973999999999961
21
-99.3414999999999964
0
LINE
8
BLACK
6
CONTINUOUS
10
137.2973999999999819
20
-99.3414999999999964
11
138.2973999999999819
21
-99.3414999999999964
0
LINE
8
BLACK
6
CONTINUOUS
10
138.2973999999999819
20
-99.3414999999999964
11
138.2973999999999819
21
-100.3414999999999964
0
LINE
8
BLACK
6
CONTINUOUS
10
138.2973999999999819
20
-112.3414999999999964
11
138.2973999999999819
21
-113.3414999999999964
0
LINE
8
BLACK
6
CONTINUOUS
10
138.2973999999999819
20
-113.3414999999999964
11
137.2973999999999819
21
-113.3414999999999964
0
LINE
8
BLACK
6
CONTINUOUS
10
140.8223999999999876
20
-96.8164999999999907
11
140.8223999999999876
21
-115.8664999999999878
0
LINE
8
BLACK
6
CONTINUOUS
10
140.8223999999999876
20
-115.8664999999999878
11
121.7723999999999904
21
-115.8664999999999878
0
LINE
8
BLACK
6
CONTINUOUS
10
172.7724000000000046
20
-113.8164999999999907
11
191.8223999999999876
21
-113.8164999999999907
0
LINE
8
BLACK
6
CONTINUOUS
10
172.7724000000000046
20
-132.866500000000002
11
172.7724000000000046
21
-113.8164999999999907
0
LINE
8
BLACK
6
CONTINUOUS
10
175.2973999999999819
20
-116.3414999999999964
11
175.2973999999999819
21
-117.3414999999999964
0
LINE
8
BLACK
6
CONTINUOUS
10
175.2973999999999819
20
-129.3414999999999964
11
175.2973999999999819
21
-130.3414999999999964
0
LINE
8
BLACK
6
CONTINUOUS
10
175.2973999999999819
20
-130.3414999999999964
11
176.2973999999999819
21
-130.3414999999999964
0
LINE
8
BLACK
6
CONTINUOUS
10
176.2973999999999819
20
-116.3414999999999964
11
175.2973999999999819
21
-116.3414999999999964
0
LINE
8
BLACK
6
CONTINUOUS
10
188.2973999999999819
20
-116.3414999999999964
11
189.2974009999999794
21
-116.3414999999999964
0
LINE
8
BLACK
6
CONTINUOUS
10
189.2973999999999819
20
-129.3414999999999964
11
189.2973999999999819
21
-130.3414999999999964
0
LINE
8
BLACK
6
CONTINUOUS
10
189.2973999999999819
20
-130.3414999999999964
11
188.2973999999999819
21
-130.3414999999999964
0
LINE
8
BLACK
6
CONTINUOUS
10
189.2974009999999794
20
-116.3414999999999964
11
189.2973999999999819
21
-117.3414999999999964
0
LINE
8
BLACK
6
CONTINUOUS
10
191.8223999999999876
20
-113.8164999999999907
11
191.8223999999999876
21
-132.866500000000002
0
LINE
8
BLACK
6
CONTINUOUS
10
191.8223999999999876
20
-132.866500000000002
11
172.7724000000000046
21
-132.866500000000002
0
LINE
8
BLACK
6
CONTINUOUS
10
207.9134999999999991
20
-87.7719000000000023
11
211.4134999999999991
21
-87.7719000000000023
0
LINE
8
BLACK
6
CONTINUOUS
10
207.9134999999999991
20
-96.7719000000000023
11
207.9134999999999991
21
-87.7719000000000023
0
LINE
8
BLACK
6
CONTINUOUS
10
211.4134999999999991
20
-87.7719000000000023
11
211.4134999999999991
21
-96.7719000000000023
0
LINE
8
BLACK
6
CONTINUOUS
10
211.4134999999999991
20
-96.7719000000000023
11
207.9134999999999991
21
-96.7719000000000023
0
LINE
8
BLACK
6
CONTINUOUS
10
206.3017999999999859
20
-58.7104999999999961
11
197.3017999999999859
21
-58.7104999999999961
0
LINE
8
BLACK
6
CONTINUOUS
10
197.3017999999999859
20
-58.7104999999999961
11
197.3017999999999859
21
-60.2104999999999961
0
LINE
8
BLACK
6
CONTINUOUS
10
197.3017999999999859
20
-60.2104999999999961
11
206.3017999999999859
21
-60.2104999999999961
0
LINE
8
BLACK
6
CONTINUOUS
10
206.3017999999999859
20
-60.2104999999999961
11
206.3017999999999859
21
-58.7104999999999961
0
LINE
8
BLACK
6
CONTINUOUS
10
210.6918000000000006
20
-81.2104999999999961
11
192.9117999999999995
21
-81.2104999999999961
0
LINE
8
BLACK
6
CONTINUOUS
10
192.9117999999999995
20
-81.2104999999999961
11
192.9117999999999995
21
-60.2104999999999961
0
LINE
8
BLACK
6
CONTINUOUS
10
192.9117999999999995
20
-60.2104999999999961
11
210.6918000000000006
21
-60.2104999999999961
0
LINE
8
BLACK
6
CONTINUOUS
10
210.6918000000000006
20
-60.2104999999999961
11
210.6918000000000006
21
-81.2104999999999961
0
POLYLINE
8
BLACK
66
1
70
1
40
0.5765
41
0.5765
0
VERTEX
8
BLACK
10
200.243549999999999
 20
-62.1385000000000005
42
1.0
0
VERTEX
8
BLACK
10
200.820050000000009
 20
-62.1385000000000005
42
1.0
0
SEQEND
0
POLYLINE
8
BLACK
66
1
70
1
40
0.5765
41
0.5765
0
VERTEX
8
BLACK
10
200.243549999999999
 20
-64.6784999999999997
42
1.0
0
VERTEX
8
BLACK
10
200.820050000000009
 20
-64.6784999999999997
42
1.0
0
SEQEND
0
POLYLINE
8
BLACK
66
1
70
1
40
0.5765
41
0.5765
0
VERTEX
8
BLACK
10
202.7835499999999911
 20
-62.1385000000000005
42
1.0
0
VERTEX
8
BLACK
10
203.3600500000000011
 20
-62.1385000000000005
42
1.0
0
SEQEND
0
POLYLINE
8
BLACK
66
1
70
1
40
0.5765
41
0.5765
0
VERTEX
8
BLACK
10
202.7835499999999911
 20
-64.6784999999999997
42
1.0
0
VERTEX
8
BLACK
10
203.3600500000000011
 20
-64.6784999999999997
42
1.0
0
SEQEND
  0
ENDSEC
  0
EOF
