  0
SECTION
  2
HEADER
  9
$ANGBASE
  50
0.0
  9
$ANGDIR
  70
1
  9
$MEASUREMENT
  70
1
  0
ENDSEC
  0
SECTION
  2
TABLES
  0
TABLE
  2
LTYPE
  70
4
  0
LTYPE
  5
40F
  2
CONTINUOUS
  70
0
  3
Solid line
  72
65
  73
0
  40
0.0
  0
LTYPE
  5
410
  2
DASHDOT
 70
0
  3
Dash Dot ____ _ ____ _
 72
65
 73
4
 40
2.0
 49
1.25
 49
-0.25
 49
0.25
 49
-0.25
  0
LTYPE
  5
411
  2
DASHED
 70
0
  3
Dashed __ __ __ __ __
 72
65
 73
2
 40
0.75
 49
0.5
 49
-0.25
  0
LTYPE
  5
43B
  2
DOTTED
 70
0
  3
Dotted .  .  .  .
 72
65
 73
2
 40
0.2
 49
0.0
 49
-0.2
  0
ENDTAB
  0
TABLE
  2
STYLE
  70
4
  0
STYLE
  2
KICAD
  70
0
  40
0
  41
1
  42
1
  50
0
  71
0
  3
isocp.shx
  0
STYLE
  2
KICADB
  70
0
  40
0
  41
1
  42
1
  50
0
  71
0
  3
isocp.shx
  0
STYLE
  2
KICADI
  70
0
  40
0
  41
1
  42
1
  50
15
  71
0
  3
isocp.shx
  0
STYLE
  2
KICADBI
  70
0
  40
0
  41
1
  42
1
  50
15
  71
0
  3
isocp.shx
  0
ENDTAB
  0
TABLE
  2
LAYER
  70
1
  0
LAYER
  2
BLACK
  70
0
  62
7
  6
CONTINUOUS
  0
ENDTAB
  0
ENDSEC
  0
SECTION
  2
ENTITIES
0
LINE
8
BLACK
6
CONTINUOUS
10
204.
20
-51.0249999999999986
11
204.
21
-129.0250000000000057
0
LINE
8
BLACK
6
CONTINUOUS
10
95.
20
-51.0249999999999986
11
204.
21
-51.0249999999999986
0
LINE
8
BLACK
6
CONTINUOUS
10
95.
20
-129.0250000000000057
11
134.
21
-129.0250000000000057
0
LINE
8
BLACK
6
CONTINUOUS
10
158.
20
-129.0250000000000057
11
204.
21
-129.0250000000000057
0
LINE
8
BLACK
6
CONTINUOUS
10
134.
20
-109.0249999999999915
11
158.
21
-109.0249999999999915
0
LINE
8
BLACK
6
CONTINUOUS
10
134.
20
-129.0250000000000057
11
134.
21
-109.0249999999999915
0
LINE
8
BLACK
6
CONTINUOUS
10
158.
20
-109.0249999999999915
11
158.
21
-129.0250000000000057
0
LINE
8
BLACK
6
CONTINUOUS
10
95.
20
-51.0249999999999986
11
95.
21
-129.0250000000000057
0
LINE
8
BLACK
6
CONTINUOUS
10
99.0147529999999989
20
-72.2609530000000007
11
99.0147529999999989
21
-70.6607529999999997
0
LINE
8
BLACK
6
CONTINUOUS
10
99.3957529999999991
20
-70.2797529999999995
11
101.0467529999999954
21
-70.2797529999999995
0
LINE
8
BLACK
6
CONTINUOUS
10
100.7419529999999952
20
-72.9467530000000011
11
99.7005529999999993
21
-72.9467530000000011
0
LINE
8
BLACK
6
CONTINUOUS
10
101.4277529999999956
20
-70.6607529999999997
11
101.4277529999999956
21
-72.2609530000000007
0
LINE
8
BLACK
6
CONTINUOUS
10
107.0407529999999952
20
-62.9232469999999964
11
107.0407529999999952
21
-61.2722470000000001
0
LINE
8
BLACK
6
CONTINUOUS
10
107.4217529999999954
20
-60.8912469999999999
11
109.0219529999999963
21
-60.8912469999999999
0
LINE
8
BLACK
6
CONTINUOUS
10
109.0219529999999963
20
-63.3042469999999966
11
107.4217529999999954
21
-63.3042469999999966
0
LINE
8
BLACK
6
CONTINUOUS
10
109.7077529999999967
20
-61.5770470000000003
11
109.7077529999999967
21
-62.6184469999999962
0
ARC
8
BLACK
10
99.3957499999999925
20
-70.6607499999999931
40
0.3809970000118111
50
-270.00045115
51
-179.99954885
0
ARC
8
BLACK
10
99.2624999999999886
20
-72.6989999999999981
40
0.5032531671216784
50
-29.49153157
51
119.49127326
0
ARC
8
BLACK
10
101.1799999999999926
20
-72.6989999999999981
40
0.5032561208947189
50
-299.49186786
51
-150.50813214
0
ARC
8
BLACK
10
101.0467599999999919
20
-70.6607499999999931
40
0.380997000064305
50
-0.00045116
51
90.00105269
0
ARC
8
BLACK
10
107.4217450000000014
20
-61.272238999999999
40
0.3809920000839913
50
-270.00120309
51
-179.99879691
0
ARC
8
BLACK
10
107.4217489999999913
20
-62.9232510000000005
40
0.3809960000209976
50
-180.00060154
51
-89.99939846
0
ARC
8
BLACK
10
109.4599999999999937
20
-63.0564939999999936
40
0.5032561208947189
50
-299.49186786
51
-150.50813214
0
ARC
8
BLACK
10
109.4599999999999937
20
-61.1389999999999958
40
0.5032561208947189
50
-209.49186786
51
-60.50813214
0
CIRCLE
8
BLACK
10
118.
20
-55.4110999999999976
40
2.4499999999999997
0
CIRCLE
8
BLACK
10
111.
20
-80.0249999999999915
40
2.4499999999999997
0
CIRCLE
8
BLACK
10
97.5444999999999993
20
-125.4298000000000002
40
2.4499999999999997
0
LINE
8
BLACK
6
CONTINUOUS
10
158.9377999999999815
20
-108.5604999999999905
11
162.4877999999999929
21
-108.5604999999999905
0
LINE
8
BLACK
6
CONTINUOUS
10
158.9377999999999815
20
-127.3604999999999876
11
158.9377999999999815
21
-108.5604999999999905
0
LINE
8
BLACK
6
CONTINUOUS
10
162.4877999999999929
20
-108.5604999999999905
11
162.4877999999999929
21
-127.3604999999999876
0
LINE
8
BLACK
6
CONTINUOUS
10
162.4877999999999929
20
-127.3604999999999876
11
158.9377999999999815
21
-127.3604999999999876
0
CIRCLE
8
BLACK
10
201.4983000000000004
20
-55.3726999999999947
40
2.4499999999999997
0
CIRCLE
8
BLACK
10
201.5115999999999872
20
-125.4422999999999888
40
2.4499999999999997
  0
TEXT
  7
KICAD
  8
BLACK
  10
96.0364000000000004
  11
96.0364000000000004
  20
-93.9891999999999967
  21
-93.9891999999999967
  40
1.
  41
0.8999999999999999
  50
90.00000000
  51
0.00000000
  71
2
  72
1
  73
2
  1
MSK-12D19
0
LINE
8
BLACK
6
CONTINUOUS
10
114.4749999999999943
20
-55.4749999999999943
11
133.5250000000000057
21
-55.4749999999999943
0
LINE
8
BLACK
6
CONTINUOUS
10
114.4749999999999943
20
-74.5249999999999915
11
114.4749999999999943
21
-55.4749999999999943
0
LINE
8
BLACK
6
CONTINUOUS
10
117.
20
-58.
11
117.
21
-59.
0
LINE
8
BLACK
6
CONTINUOUS
10
117.
20
-71.
11
117.
21
-72.
0
LINE
8
BLACK
6
CONTINUOUS
10
117.
20
-72.
11
118.
21
-72.
0
LINE
8
BLACK
6
CONTINUOUS
10
118.
20
-58.
11
117.
21
-58.
0
LINE
8
BLACK
6
CONTINUOUS
10
130.
20
-58.
11
131.
21
-58.
0
LINE
8
BLACK
6
CONTINUOUS
10
131.
20
-58.
11
131.
21
-59.
0
LINE
8
BLACK
6
CONTINUOUS
10
131.
20
-71.
11
131.
21
-72.
0
LINE
8
BLACK
6
CONTINUOUS
10
131.
20
-72.
11
130.
21
-72.
0
LINE
8
BLACK
6
CONTINUOUS
10
133.5250000000000057
20
-55.4749999999999943
11
133.5250000000000057
21
-74.5249999999999915
0
LINE
8
BLACK
6
CONTINUOUS
10
133.5250000000000057
20
-74.5249999999999915
11
114.4749999999999943
21
-74.5249999999999915
0
LINE
8
BLACK
6
CONTINUOUS
10
97.4749999999999943
20
-89.4749999999999943
11
116.5249999999999915
21
-89.4749999999999943
0
LINE
8
BLACK
6
CONTINUOUS
10
97.4749999999999943
20
-108.5249999999999915
11
97.4749999999999943
21
-89.4749999999999943
0
LINE
8
BLACK
6
CONTINUOUS
10
100.
20
-92.
11
100.
21
-93.
0
LINE
8
BLACK
6
CONTINUOUS
10
100.
20
-105.
11
100.
21
-106.
0
LINE
8
BLACK
6
CONTINUOUS
10
100.
20
-106.
11
101.
21
-106.
0
LINE
8
BLACK
6
CONTINUOUS
10
101.
20
-92.
11
100.
21
-92.
0
LINE
8
BLACK
6
CONTINUOUS
10
113.
20
-92.
11
114.
21
-92.
0
LINE
8
BLACK
6
CONTINUOUS
10
114.
20
-92.
11
114.
21
-93.
0
LINE
8
BLACK
6
CONTINUOUS
10
114.
20
-105.
11
114.
21
-106.
0
LINE
8
BLACK
6
CONTINUOUS
10
114.
20
-106.
11
113.
21
-106.
0
LINE
8
BLACK
6
CONTINUOUS
10
116.5249999999999915
20
-89.4749999999999943
11
116.5249999999999915
21
-108.5249999999999915
0
LINE
8
BLACK
6
CONTINUOUS
10
116.5249999999999915
20
-108.5249999999999915
11
97.4749999999999943
21
-108.5249999999999915
0
LINE
8
BLACK
6
CONTINUOUS
10
165.4749999999999943
20
-89.4749999999999943
11
184.5250000000000057
21
-89.4749999999999943
0
LINE
8
BLACK
6
CONTINUOUS
10
165.4749999999999943
20
-108.5249999999999915
11
165.4749999999999943
21
-89.4749999999999943
0
LINE
8
BLACK
6
CONTINUOUS
10
168.
20
-92.
11
168.
21
-93.
0
LINE
8
BLACK
6
CONTINUOUS
10
168.
20
-105.
11
168.
21
-106.
0
LINE
8
BLACK
6
CONTINUOUS
10
168.
20
-106.
11
169.
21
-106.
0
LINE
8
BLACK
6
CONTINUOUS
10
169.
20
-92.
11
168.
21
-92.
0
LINE
8
BLACK
6
CONTINUOUS
10
181.
20
-92.
11
182.
21
-92.
0
LINE
8
BLACK
6
CONTINUOUS
10
182.
20
-92.
11
182.
21
-93.
0
LINE
8
BLACK
6
CONTINUOUS
10
182.
20
-105.
11
182.
21
-106.
0
LINE
8
BLACK
6
CONTINUOUS
10
182.
20
-106.
11
181.
21
-106.
0
LINE
8
BLACK
6
CONTINUOUS
10
184.5250000000000057
20
-89.4749999999999943
11
184.5250000000000057
21
-108.5249999999999915
0
LINE
8
BLACK
6
CONTINUOUS
10
184.5250000000000057
20
-108.5249999999999915
11
165.4749999999999943
21
-108.5249999999999915
0
LINE
8
BLACK
6
CONTINUOUS
10
114.4749999999999943
20
-106.4749999999999943
11
133.5250000000000057
21
-106.4749999999999943
0
LINE
8
BLACK
6
CONTINUOUS
10
114.4749999999999943
20
-125.5249999999999915
11
114.4749999999999943
21
-106.4749999999999943
0
LINE
8
BLACK
6
CONTINUOUS
10
117.
20
-109.
11
116.9999989999999883
21
-110.
0
LINE
8
BLACK
6
CONTINUOUS
10
117.
20
-122.
11
117.
21
-123.
0
LINE
8
BLACK
6
CONTINUOUS
10
117.
20
-123.
11
118.
21
-123.
0
LINE
8
BLACK
6
CONTINUOUS
10
118.
20
-109.
11
117.
21
-109.
0
LINE
8
BLACK
6
CONTINUOUS
10
130.
20
-109.
11
131.
21
-109.
0
LINE
8
BLACK
6
CONTINUOUS
10
131.
20
-109.
11
131.
21
-110.
0
LINE
8
BLACK
6
CONTINUOUS
10
131.
20
-122.
11
131.
21
-123.
0
LINE
8
BLACK
6
CONTINUOUS
10
131.
20
-123.
11
130.
21
-123.
0
LINE
8
BLACK
6
CONTINUOUS
10
133.5250000000000057
20
-106.4749999999999943
11
133.5250000000000057
21
-125.5249999999999915
0
LINE
8
BLACK
6
CONTINUOUS
10
133.5250000000000057
20
-125.5249999999999915
11
114.4749999999999943
21
-125.5249999999999915
0
LINE
8
BLACK
6
CONTINUOUS
10
95.0364000000000004
20
-89.4891999999999967
11
98.5364000000000004
21
-89.4891999999999967
0
LINE
8
BLACK
6
CONTINUOUS
10
95.0364000000000004
20
-98.4891999999999967
11
95.0364000000000004
21
-89.4891999999999967
0
LINE
8
BLACK
6
CONTINUOUS
10
98.5364000000000004
20
-89.4891999999999967
11
98.5364000000000004
21
-98.4891999999999967
0
LINE
8
BLACK
6
CONTINUOUS
10
98.5364000000000004
20
-98.4891999999999967
11
95.0364000000000004
21
-98.4891999999999967
0
LINE
8
BLACK
6
CONTINUOUS
10
165.4749999999999943
20
-55.4749999999999943
11
184.5250000000000057
21
-55.4749999999999943
0
LINE
8
BLACK
6
CONTINUOUS
10
165.4749999999999943
20
-74.5249999999999915
11
165.4749999999999943
21
-55.4749999999999943
0
LINE
8
BLACK
6
CONTINUOUS
10
168.
20
-58.
11
168.
21
-59.
0
LINE
8
BLACK
6
CONTINUOUS
10
168.
20
-71.
11
168.
21
-72.
0
LINE
8
BLACK
6
CONTINUOUS
10
168.
20
-72.
11
169.
21
-72.
0
LINE
8
BLACK
6
CONTINUOUS
10
169.
20
-58.
11
168.
21
-58.
0
LINE
8
BLACK
6
CONTINUOUS
10
181.
20
-58.
11
182.
21
-58.
0
LINE
8
BLACK
6
CONTINUOUS
10
182.
20
-58.
11
182.
21
-59.
0
LINE
8
BLACK
6
CONTINUOUS
10
182.
20
-71.
11
182.
21
-72.
0
LINE
8
BLACK
6
CONTINUOUS
10
182.
20
-72.
11
181.
21
-72.
0
LINE
8
BLACK
6
CONTINUOUS
10
184.5250000000000057
20
-55.4749999999999943
11
184.5250000000000057
21
-74.5249999999999915
0
LINE
8
BLACK
6
CONTINUOUS
10
184.5250000000000057
20
-74.5249999999999915
11
165.4749999999999943
21
-74.5249999999999915
0
LINE
8
BLACK
6
CONTINUOUS
10
182.4749999999999943
20
-55.4749999999999943
11
201.5249999999999773
21
-55.4749999999999943
0
LINE
8
BLACK
6
CONTINUOUS
10
182.4749999999999943
20
-74.5249999999999915
11
182.4749999999999943
21
-55.4749999999999943
0
LINE
8
BLACK
6
CONTINUOUS
10
185.
20
-58.
11
185.
21
-59.
0
LINE
8
BLACK
6
CONTINUOUS
10
185.
20
-71.
11
185.
21
-72.
0
LINE
8
BLACK
6
CONTINUOUS
10
185.
20
-72.
11
186.
21
-72.
0
LINE
8
BLACK
6
CONTINUOUS
10
186.
20
-58.
11
185.
21
-58.
0
LINE
8
BLACK
6
CONTINUOUS
10
198.
20
-58.
11
199.
21
-58.
0
LINE
8
BLACK
6
CONTINUOUS
10
199.
20
-58.
11
199.
21
-59.
0
LINE
8
BLACK
6
CONTINUOUS
10
199.
20
-71.
11
199.
21
-72.
0
LINE
8
BLACK
6
CONTINUOUS
10
199.
20
-72.
11
198.
21
-72.
0
LINE
8
BLACK
6
CONTINUOUS
10
201.5249999999999773
20
-55.4749999999999943
11
201.5249999999999773
21
-74.5249999999999915
0
LINE
8
BLACK
6
CONTINUOUS
10
201.5249999999999773
20
-74.5249999999999915
11
182.4749999999999943
21
-74.5249999999999915
0
LINE
8
BLACK
6
CONTINUOUS
10
148.4749999999999943
20
-89.4749999999999943
11
167.5250000000000057
21
-89.4749999999999943
0
LINE
8
BLACK
6
CONTINUOUS
10
148.4749999999999943
20
-108.5249999999999915
11
148.4749999999999943
21
-89.4749999999999943
0
LINE
8
BLACK
6
CONTINUOUS
10
151.
20
-92.
11
151.
21
-93.
0
LINE
8
BLACK
6
CONTINUOUS
10
151.
20
-105.
11
151.
21
-106.
0
LINE
8
BLACK
6
CONTINUOUS
10
151.
20
-106.
11
152.
21
-106.
0
LINE
8
BLACK
6
CONTINUOUS
10
152.
20
-92.
11
151.
21
-92.
0
LINE
8
BLACK
6
CONTINUOUS
10
164.
20
-92.
11
165.
21
-92.
0
LINE
8
BLACK
6
CONTINUOUS
10
165.
20
-92.
11
165.
21
-93.
0
LINE
8
BLACK
6
CONTINUOUS
10
165.
20
-105.
11
165.
21
-106.
0
LINE
8
BLACK
6
CONTINUOUS
10
165.
20
-106.
11
164.
21
-106.
0
LINE
8
BLACK
6
CONTINUOUS
10
167.5250000000000057
20
-89.4749999999999943
11
167.5250000000000057
21
-108.5249999999999915
0
LINE
8
BLACK
6
CONTINUOUS
10
167.5250000000000057
20
-108.5249999999999915
11
148.4749999999999943
21
-108.5249999999999915
0
LINE
8
BLACK
6
CONTINUOUS
10
97.4749999999999943
20
-106.4749999999999943
11
116.5249999999999915
21
-106.4749999999999943
0
LINE
8
BLACK
6
CONTINUOUS
10
97.4749999999999943
20
-125.5249999999999915
11
97.4749999999999943
21
-106.4749999999999943
0
LINE
8
BLACK
6
CONTINUOUS
10
100.
20
-109.
11
100.
21
-110.
0
LINE
8
BLACK
6
CONTINUOUS
10
100.
20
-122.
11
100.
21
-123.
0
LINE
8
BLACK
6
CONTINUOUS
10
100.
20
-123.
11
101.
21
-123.
0
LINE
8
BLACK
6
CONTINUOUS
10
101.
20
-109.
11
100.
21
-109.
0
LINE
8
BLACK
6
CONTINUOUS
10
113.
20
-108.9999989999999883
11
114.
21
-109.
0
LINE
8
BLACK
6
CONTINUOUS
10
114.
20
-109.
11
114.
21
-110.
0
LINE
8
BLACK
6
CONTINUOUS
10
114.
20
-122.
11
114.
21
-123.
0
LINE
8
BLACK
6
CONTINUOUS
10
114.
20
-123.
11
113.
21
-123.
0
LINE
8
BLACK
6
CONTINUOUS
10
116.5249999999999915
20
-106.4749999999999943
11
116.5249999999999915
21
-125.5249999999999915
0
LINE
8
BLACK
6
CONTINUOUS
10
116.5249999999999915
20
-125.5249999999999915
11
97.4749999999999943
21
-125.5249999999999915
0
LINE
8
BLACK
6
CONTINUOUS
10
182.4749999999999943
20
-89.4749999999999943
11
201.5249999999999773
21
-89.4749999999999943
0
LINE
8
BLACK
6
CONTINUOUS
10
182.4749999999999943
20
-108.5249999999999915
11
182.4749999999999943
21
-89.4749999999999943
0
LINE
8
BLACK
6
CONTINUOUS
10
185.
20
-92.
11
185.
21
-93.
0
LINE
8
BLACK
6
CONTINUOUS
10
185.
20
-105.
11
185.
21
-106.
0
LINE
8
BLACK
6
CONTINUOUS
10
185.
20
-106.
11
186.
21
-106.
0
LINE
8
BLACK
6
CONTINUOUS
10
186.
20
-92.
11
185.
21
-92.
0
LINE
8
BLACK
6
CONTINUOUS
10
198.
20
-92.
11
199.
21
-92.
0
LINE
8
BLACK
6
CONTINUOUS
10
199.
20
-92.
11
199.
21
-93.
0
LINE
8
BLACK
6
CONTINUOUS
10
199.
20
-105.
11
199.
21
-106.
0
LINE
8
BLACK
6
CONTINUOUS
10
199.
20
-106.
11
198.
21
-106.
0
LINE
8
BLACK
6
CONTINUOUS
10
201.5249999999999773
20
-89.4749999999999943
11
201.5249999999999773
21
-108.5249999999999915
0
LINE
8
BLACK
6
CONTINUOUS
10
201.5249999999999773
20
-108.5249999999999915
11
182.4749999999999943
21
-108.5249999999999915
0
LINE
8
BLACK
6
CONTINUOUS
10
182.4749999999999943
20
-106.4749999999999943
11
201.5249999999999773
21
-106.4749999999999943
0
LINE
8
BLACK
6
CONTINUOUS
10
182.4749999999999943
20
-125.5249999999999915
11
182.4749999999999943
21
-106.4749999999999943
0
LINE
8
BLACK
6
CONTINUOUS
10
185.
20
-109.
11
185.
21
-110.
0
LINE
8
BLACK
6
CONTINUOUS
10
185.
20
-122.
11
185.
21
-123.
0
LINE
8
BLACK
6
CONTINUOUS
10
185.
20
-123.
11
186.
21
-123.
0
LINE
8
BLACK
6
CONTINUOUS
10
186.
20
-109.
11
185.
21
-109.
0
LINE
8
BLACK
6
CONTINUOUS
10
198.
20
-109.
11
199.
21
-109.
0
LINE
8
BLACK
6
CONTINUOUS
10
199.
20
-109.
11
199.
21
-110.
0
LINE
8
BLACK
6
CONTINUOUS
10
199.
20
-122.
11
199.
21
-123.
0
LINE
8
BLACK
6
CONTINUOUS
10
199.
20
-123.
11
198.
21
-123.
0
LINE
8
BLACK
6
CONTINUOUS
10
201.5249999999999773
20
-106.4749999999999943
11
201.5249999999999773
21
-125.5249999999999915
0
LINE
8
BLACK
6
CONTINUOUS
10
201.5249999999999773
20
-125.5249999999999915
11
182.4749999999999943
21
-125.5249999999999915
0
LINE
8
BLACK
6
CONTINUOUS
10
114.4749999999999943
20
-89.4749999999999943
11
133.5250000000000057
21
-89.4749999999999943
0
LINE
8
BLACK
6
CONTINUOUS
10
114.4749999999999943
20
-108.5249999999999915
11
114.4749999999999943
21
-89.4749999999999943
0
LINE
8
BLACK
6
CONTINUOUS
10
117.
20
-92.
11
117.
21
-93.
0
LINE
8
BLACK
6
CONTINUOUS
10
117.
20
-105.
11
117.
21
-106.
0
LINE
8
BLACK
6
CONTINUOUS
10
117.
20
-106.
11
118.
21
-106.
0
LINE
8
BLACK
6
CONTINUOUS
10
118.
20
-92.
11
117.
21
-92.
0
LINE
8
BLACK
6
CONTINUOUS
10
130.
20
-92.
11
131.
21
-92.
0
LINE
8
BLACK
6
CONTINUOUS
10
131.
20
-92.
11
131.
21
-93.
0
LINE
8
BLACK
6
CONTINUOUS
10
131.
20
-105.
11
131.
21
-106.
0
LINE
8
BLACK
6
CONTINUOUS
10
131.
20
-106.
11
130.
21
-106.
0
LINE
8
BLACK
6
CONTINUOUS
10
133.5250000000000057
20
-89.4749999999999943
11
133.5250000000000057
21
-108.5249999999999915
0
LINE
8
BLACK
6
CONTINUOUS
10
133.5250000000000057
20
-108.5249999999999915
11
114.4749999999999943
21
-108.5249999999999915
0
LINE
8
BLACK
6
CONTINUOUS
10
131.4749999999999943
20
-89.4749999999999943
11
150.5250000000000057
21
-89.4749999999999943
0
LINE
8
BLACK
6
CONTINUOUS
10
131.4749999999999943
20
-108.5249999999999915
11
131.4749999999999943
21
-89.4749999999999943
0
LINE
8
BLACK
6
CONTINUOUS
10
134.
20
-92.
11
134.
21
-93.
0
LINE
8
BLACK
6
CONTINUOUS
10
134.
20
-105.
11
134.
21
-106.
0
LINE
8
BLACK
6
CONTINUOUS
10
134.
20
-106.
11
135.
21
-106.
0
LINE
8
BLACK
6
CONTINUOUS
10
135.
20
-92.
11
134.
21
-92.
0
LINE
8
BLACK
6
CONTINUOUS
10
147.
20
-92.
11
148.
21
-92.
0
LINE
8
BLACK
6
CONTINUOUS
10
148.
20
-92.
11
148.
21
-93.
0
LINE
8
BLACK
6
CONTINUOUS
10
148.
20
-105.
11
148.
21
-106.
0
LINE
8
BLACK
6
CONTINUOUS
10
148.
20
-106.
11
147.
21
-106.
0
LINE
8
BLACK
6
CONTINUOUS
10
150.5250000000000057
20
-89.4749999999999943
11
150.5250000000000057
21
-108.5249999999999915
0
LINE
8
BLACK
6
CONTINUOUS
10
150.5250000000000057
20
-108.5249999999999915
11
131.4749999999999943
21
-108.5249999999999915
0
LINE
8
BLACK
6
CONTINUOUS
10
148.4749999999999943
20
-72.4749999999999943
11
167.5250000000000057
21
-72.4749999999999943
0
LINE
8
BLACK
6
CONTINUOUS
10
148.4749999999999943
20
-91.5249999999999915
11
148.4749999999999943
21
-72.4749999999999943
0
LINE
8
BLACK
6
CONTINUOUS
10
151.
20
-75.
11
151.
21
-76.
0
LINE
8
BLACK
6
CONTINUOUS
10
151.
20
-88.
11
151.
21
-89.
0
LINE
8
BLACK
6
CONTINUOUS
10
151.
20
-89.
11
152.
21
-89.
0
LINE
8
BLACK
6
CONTINUOUS
10
152.
20
-75.
11
151.
21
-75.
0
LINE
8
BLACK
6
CONTINUOUS
10
164.
20
-75.
11
165.
21
-75.
0
LINE
8
BLACK
6
CONTINUOUS
10
165.
20
-75.
11
165.
21
-76.
0
LINE
8
BLACK
6
CONTINUOUS
10
165.
20
-88.
11
165.
21
-89.
0
LINE
8
BLACK
6
CONTINUOUS
10
165.
20
-89.
11
164.
21
-89.
0
LINE
8
BLACK
6
CONTINUOUS
10
167.5250000000000057
20
-72.4749999999999943
11
167.5250000000000057
21
-91.5249999999999915
0
LINE
8
BLACK
6
CONTINUOUS
10
167.5250000000000057
20
-91.5249999999999915
11
148.4749999999999943
21
-91.5249999999999915
0
LINE
8
BLACK
6
CONTINUOUS
10
131.4749999999999943
20
-55.4749999999999943
11
150.5250000000000057
21
-55.4749999999999943
0
LINE
8
BLACK
6
CONTINUOUS
10
131.4749999999999943
20
-74.5249999999999915
11
131.4749999999999943
21
-55.4749999999999943
0
LINE
8
BLACK
6
CONTINUOUS
10
134.
20
-58.
11
134.
21
-59.
0
LINE
8
BLACK
6
CONTINUOUS
10
134.
20
-71.
11
134.
21
-72.
0
LINE
8
BLACK
6
CONTINUOUS
10
134.
20
-72.
11
135.
21
-72.
0
LINE
8
BLACK
6
CONTINUOUS
10
135.
20
-58.
11
134.
21
-58.
0
LINE
8
BLACK
6
CONTINUOUS
10
147.
20
-58.
11
148.
21
-58.
0
LINE
8
BLACK
6
CONTINUOUS
10
148.
20
-58.
11
148.
21
-59.
0
LINE
8
BLACK
6
CONTINUOUS
10
148.
20
-71.
11
148.
21
-72.
0
LINE
8
BLACK
6
CONTINUOUS
10
148.
20
-72.
11
147.
21
-72.
0
LINE
8
BLACK
6
CONTINUOUS
10
150.5250000000000057
20
-55.4749999999999943
11
150.5250000000000057
21
-74.5249999999999915
0
LINE
8
BLACK
6
CONTINUOUS
10
150.5250000000000057
20
-74.5249999999999915
11
131.4749999999999943
21
-74.5249999999999915
0
LINE
8
BLACK
6
CONTINUOUS
10
131.4749999999999943
20
-72.4749999999999943
11
150.5250000000000057
21
-72.4749999999999943
0
LINE
8
BLACK
6
CONTINUOUS
10
131.4749999999999943
20
-91.5249999999999915
11
131.4749999999999943
21
-72.4749999999999943
0
LINE
8
BLACK
6
CONTINUOUS
10
134.
20
-75.
11
134.
21
-76.
0
LINE
8
BLACK
6
CONTINUOUS
10
134.
20
-88.
11
134.
21
-89.
0
LINE
8
BLACK
6
CONTINUOUS
10
134.
20
-89.
11
135.
21
-89.
0
LINE
8
BLACK
6
CONTINUOUS
10
135.
20
-75.
11
134.
21
-75.
0
LINE
8
BLACK
6
CONTINUOUS
10
147.
20
-75.
11
148.
21
-75.
0
LINE
8
BLACK
6
CONTINUOUS
10
148.
20
-75.
11
148.
21
-76.
0
LINE
8
BLACK
6
CONTINUOUS
10
148.
20
-88.
11
148.
21
-89.
0
LINE
8
BLACK
6
CONTINUOUS
10
148.
20
-89.
11
147.
21
-89.
0
LINE
8
BLACK
6
CONTINUOUS
10
150.5250000000000057
20
-72.4749999999999943
11
150.5250000000000057
21
-91.5249999999999915
0
LINE
8
BLACK
6
CONTINUOUS
10
150.5250000000000057
20
-91.5249999999999915
11
131.4749999999999943
21
-91.5249999999999915
0
LINE
8
BLACK
6
CONTINUOUS
10
148.4749999999999943
20
-55.4749999999999943
11
167.5250000000000057
21
-55.4749999999999943
0
LINE
8
BLACK
6
CONTINUOUS
10
148.4749999999999943
20
-74.5249999999999915
11
148.4749999999999943
21
-55.4749999999999943
0
LINE
8
BLACK
6
CONTINUOUS
10
151.
20
-58.
11
151.
21
-59.
0
LINE
8
BLACK
6
CONTINUOUS
10
151.
20
-71.
11
151.
21
-72.
0
LINE
8
BLACK
6
CONTINUOUS
10
151.
20
-72.
11
152.
21
-72.
0
LINE
8
BLACK
6
CONTINUOUS
10
152.
20
-58.
11
151.
21
-58.
0
LINE
8
BLACK
6
CONTINUOUS
10
164.
20
-58.
11
165.
21
-58.
0
LINE
8
BLACK
6
CONTINUOUS
10
165.
20
-58.
11
165.
21
-59.
0
LINE
8
BLACK
6
CONTINUOUS
10
165.
20
-71.
11
165.
21
-72.
0
LINE
8
BLACK
6
CONTINUOUS
10
165.
20
-72.
11
164.
21
-72.
0
LINE
8
BLACK
6
CONTINUOUS
10
167.5250000000000057
20
-55.4749999999999943
11
167.5250000000000057
21
-74.5249999999999915
0
LINE
8
BLACK
6
CONTINUOUS
10
167.5250000000000057
20
-74.5249999999999915
11
148.4749999999999943
21
-74.5249999999999915
0
LINE
8
BLACK
6
CONTINUOUS
10
165.4749999999999943
20
-106.4749999999999943
11
184.5250000000000057
21
-106.4749999999999943
0
LINE
8
BLACK
6
CONTINUOUS
10
165.4749999999999943
20
-125.5249999999999915
11
165.4749999999999943
21
-106.4749999999999943
0
LINE
8
BLACK
6
CONTINUOUS
10
168.
20
-109.
11
168.
21
-110.
0
LINE
8
BLACK
6
CONTINUOUS
10
168.
20
-122.
11
168.
21
-123.
0
LINE
8
BLACK
6
CONTINUOUS
10
168.
20
-123.
11
169.
21
-123.
0
LINE
8
BLACK
6
CONTINUOUS
10
169.
20
-109.
11
168.
21
-109.
0
LINE
8
BLACK
6
CONTINUOUS
10
181.
20
-109.
11
182.
21
-109.
0
LINE
8
BLACK
6
CONTINUOUS
10
182.
20
-109.
11
182.
21
-110.
0
LINE
8
BLACK
6
CONTINUOUS
10
182.
20
-122.
11
182.
21
-123.
0
LINE
8
BLACK
6
CONTINUOUS
10
182.
20
-123.
11
181.
21
-123.
0
LINE
8
BLACK
6
CONTINUOUS
10
184.5250000000000057
20
-106.4749999999999943
11
184.5250000000000057
21
-125.5249999999999915
0
LINE
8
BLACK
6
CONTINUOUS
10
184.5250000000000057
20
-125.5249999999999915
11
165.4749999999999943
21
-125.5249999999999915
0
LINE
8
BLACK
6
CONTINUOUS
10
114.4749999999999943
20
-72.4749999999999943
11
133.5250000000000057
21
-72.4749999999999943
0
LINE
8
BLACK
6
CONTINUOUS
10
114.4749999999999943
20
-91.5249999999999915
11
114.4749999999999943
21
-72.4749999999999943
0
LINE
8
BLACK
6
CONTINUOUS
10
117.
20
-75.
11
117.
21
-76.
0
LINE
8
BLACK
6
CONTINUOUS
10
117.
20
-88.
11
117.
21
-89.
0
LINE
8
BLACK
6
CONTINUOUS
10
117.
20
-89.
11
118.
21
-89.
0
LINE
8
BLACK
6
CONTINUOUS
10
118.
20
-75.
11
117.
21
-75.
0
LINE
8
BLACK
6
CONTINUOUS
10
130.
20
-75.
11
131.
21
-75.
0
LINE
8
BLACK
6
CONTINUOUS
10
131.
20
-75.
11
131.
21
-76.
0
LINE
8
BLACK
6
CONTINUOUS
10
131.
20
-88.
11
131.
21
-89.
0
LINE
8
BLACK
6
CONTINUOUS
10
131.
20
-89.
11
130.
21
-89.
0
LINE
8
BLACK
6
CONTINUOUS
10
133.5250000000000057
20
-72.4749999999999943
11
133.5250000000000057
21
-91.5249999999999915
0
LINE
8
BLACK
6
CONTINUOUS
10
133.5250000000000057
20
-91.5249999999999915
11
114.4749999999999943
21
-91.5249999999999915
0
LINE
8
BLACK
6
CONTINUOUS
10
182.4749999999999943
20
-72.4749999999999943
11
201.5249999999999773
21
-72.4749999999999943
0
LINE
8
BLACK
6
CONTINUOUS
10
182.4749999999999943
20
-91.5249999999999915
11
182.4749999999999943
21
-72.4749999999999943
0
LINE
8
BLACK
6
CONTINUOUS
10
185.
20
-75.
11
185.
21
-76.
0
LINE
8
BLACK
6
CONTINUOUS
10
185.
20
-88.
11
185.
21
-89.
0
LINE
8
BLACK
6
CONTINUOUS
10
185.
20
-89.
11
186.
21
-89.
0
LINE
8
BLACK
6
CONTINUOUS
10
186.
20
-75.
11
185.
21
-75.
0
LINE
8
BLACK
6
CONTINUOUS
10
198.
20
-75.
11
199.
21
-75.
0
LINE
8
BLACK
6
CONTINUOUS
10
199.
20
-75.
11
199.
21
-76.
0
LINE
8
BLACK
6
CONTINUOUS
10
199.
20
-88.
11
199.
21
-89.
0
LINE
8
BLACK
6
CONTINUOUS
10
199.
20
-89.
11
198.
21
-89.
0
LINE
8
BLACK
6
CONTINUOUS
10
201.5249999999999773
20
-72.4749999999999943
11
201.5249999999999773
21
-91.5249999999999915
0
LINE
8
BLACK
6
CONTINUOUS
10
201.5249999999999773
20
-91.5249999999999915
11
182.4749999999999943
21
-91.5249999999999915
0
LINE
8
BLACK
6
CONTINUOUS
10
165.4749999999999943
20
-72.4749999999999943
11
184.5250000000000057
21
-72.4749999999999943
0
LINE
8
BLACK
6
CONTINUOUS
10
165.4749999999999943
20
-91.5249999999999915
11
165.4749999999999943
21
-72.4749999999999943
0
LINE
8
BLACK
6
CONTINUOUS
10
168.
20
-75.
11
168.
21
-76.
0
LINE
8
BLACK
6
CONTINUOUS
10
168.
20
-88.
11
168.
21
-89.
0
LINE
8
BLACK
6
CONTINUOUS
10
168.
20
-89.
11
169.
21
-89.
0
LINE
8
BLACK
6
CONTINUOUS
10
169.
20
-75.
11
168.
21
-75.
0
LINE
8
BLACK
6
CONTINUOUS
10
181.
20
-75.
11
182.
21
-75.
0
LINE
8
BLACK
6
CONTINUOUS
10
182.
20
-75.
11
182.
21
-76.
0
LINE
8
BLACK
6
CONTINUOUS
10
182.
20
-88.
11
182.
21
-89.
0
LINE
8
BLACK
6
CONTINUOUS
10
182.
20
-89.
11
181.
21
-89.
0
LINE
8
BLACK
6
CONTINUOUS
10
184.5250000000000057
20
-72.4749999999999943
11
184.5250000000000057
21
-91.5249999999999915
0
LINE
8
BLACK
6
CONTINUOUS
10
184.5250000000000057
20
-91.5249999999999915
11
165.4749999999999943
21
-91.5249999999999915
0
LINE
8
BLACK
6
CONTINUOUS
10
109.5
20
-51.3689999999999998
11
100.5
21
-51.3689999999999998
0
LINE
8
BLACK
6
CONTINUOUS
10
100.5
20
-51.3689999999999998
11
100.5
21
-52.8689999999999998
0
LINE
8
BLACK
6
CONTINUOUS
10
100.5
20
-52.8689999999999998
11
109.5
21
-52.8689999999999998
0
LINE
8
BLACK
6
CONTINUOUS
10
109.5
20
-52.8689999999999998
11
109.5
21
-51.3689999999999998
0
LINE
8
BLACK
6
CONTINUOUS
10
113.8900000000000006
20
-73.8689999999999998
11
96.1099999999999994
21
-73.8689999999999998
0
LINE
8
BLACK
6
CONTINUOUS
10
96.1099999999999994
20
-73.8689999999999998
11
96.1099999999999994
21
-52.8689999999999998
0
LINE
8
BLACK
6
CONTINUOUS
10
96.1099999999999994
20
-52.8689999999999998
11
113.8900000000000006
21
-52.8689999999999998
0
LINE
8
BLACK
6
CONTINUOUS
10
113.8900000000000006
20
-52.8689999999999998
11
113.8900000000000006
21
-73.8689999999999998
0
POLYLINE
8
BLACK
66
1
70
1
40
0.5765
41
0.5765
0
VERTEX
8
BLACK
10
103.4417499999999848
 20
-54.796999999999997
42
1.0
0
VERTEX
8
BLACK
10
104.0182499999999948
 20
-54.796999999999997
42
1.0
0
SEQEND
0
POLYLINE
8
BLACK
66
1
70
1
40
0.5765
41
0.5765
0
VERTEX
8
BLACK
10
103.4417499999999848
 20
-57.3369999999999962
42
1.0
0
VERTEX
8
BLACK
10
104.0182499999999948
 20
-57.3369999999999962
42
1.0
0
SEQEND
0
POLYLINE
8
BLACK
66
1
70
1
40
0.5765
41
0.5765
0
VERTEX
8
BLACK
10
105.981749999999991
 20
-54.796999999999997
42
1.0
0
VERTEX
8
BLACK
10
106.558250000000001
 20
-54.796999999999997
42
1.0
0
SEQEND
0
POLYLINE
8
BLACK
66
1
70
1
40
0.5765
41
0.5765
0
VERTEX
8
BLACK
10
105.981749999999991
 20
-57.3369999999999962
42
1.0
0
VERTEX
8
BLACK
10
106.558250000000001
 20
-57.3369999999999962
42
1.0
0
SEQEND
  0
ENDSEC
  0
EOF
